<svg xmlns="http://www.w3.org/2000/svg" viewBox="0 0 359.1 363.05"><defs><style>.cls-1{isolation:isolate;}.cls-2{fill:#94d7ec;}.cls-3{fill:#f6d7b9;}.cls-4{fill:#c1c1c1;mix-blend-mode:color;}</style></defs><title>BWbaby</title><g class="cls-1"><g id="Layer_1" data-name="Layer 1"><circle class="cls-2" cx="178.02" cy="183.37" r="132.86"/><path class="cls-3" d="M245.88,167.2a14.6,14.6,0,0,0-9.7,3.69C226.51,151.82,205,138.54,180,138.54c-25.52,0-47.41,13.79-56.79,33.46a14.67,14.67,0,1,0-4.81,24.1c1.55,29.1,28.53,52.27,61.6,52.27s60.16-23.28,61.59-52.48a14.67,14.67,0,1,0,4.32-28.69Z"/><path d="M165.52,149.16c2,.26,23.6,4.45,22.49-2.14-.55-3.33-6.9-5.5-9.32-7.12-1.62-1.08-4.49-2.92-4.37-5.19.19-3.51,6.77-5.62,9.37-6.59,1.83-.68,1-3.65-.82-3-4.26,1.59-12.1,4.44-11.58,10.21.39,4.45,5.74,7.2,9.1,9.19,1,.58,2,1.14,3,1.77.46.3,1.21,1.16,1.68,1.29.12,0,0-.71.13-.67a6.63,6.63,0,0,0-1.38.31c-5.86.9-12.46-.43-18.25-1.16-2-.25-1.94,2.82,0,3.06Z"/><circle class="cls-4" cx="178.02" cy="182.27" r="135.42"/></g></g></svg>