<svg xmlns="http://www.w3.org/2000/svg" viewBox="0 0 359.1 363.05"><defs><style>.cls-1{isolation:isolate;}.cls-2{fill:#9493c7;}.cls-3{fill:#94d7ec;}.cls-4{fill:#c1c1c1;mix-blend-mode:color;}</style></defs><title>BWblanket</title><g class="cls-1"><g id="Layer_1" data-name="Layer 1"><circle class="cls-2" cx="178.02" cy="179.85" r="127.71"/><path class="cls-3" d="M267.27,215.8c-1.09.58-2.27,1-3.39,1.56L243.13,227c-14.89,6.89-29.72,13.88-44.66,20.66-11.38,5.16-23.37,5.84-34.91.59-4.36-2-8.65-4.15-13-6.22L101.85,218.6c-6.91-3.32-14.69-6-16.67-14.41C82.78,194,91.32,187.66,98.54,182a4.49,4.49,0,0,1,4.62-.56l57.22,25.9c5,2.28,11,6,16.59,6.75,7,.88,15-3.82,21.31-6.37q16.35-6.63,32.68-13.33c7.39-3,15.54-5.61,22.53-9.55,3.78-2.14,6.05-5.77,5.07-10.11-.43-1.88-3.31-1.08-2.89.79,1.67,7.31-14.28,11.34-18.85,13.24Q221.9,195,206.92,201c-7,2.86-14.09,5.79-21.18,8.57-6.51,2.56-11.21.89-17-1.71l-52.6-23.8-20.41-9.24a26.16,26.16,0,0,1-4.86-2.48,13.11,13.11,0,0,1,.25-21.15c3.76-2.63,8.81-4.06,13-5.84l26.75-11.45c14-6,28.1-13.37,42.58-18.23,6.62-2.22,13,.91,19.28,3l28.07,9.2,27.74,9.09c6.07,2,14.88,3.32,15.88,11,1.17,9.08-7.87,11.23-14.35,13.82l-26.86,10.77L196,183.45c-6.11,2.44-12.76,6.31-19.31,3.44-5.56-2.44-10.68-6.55-16.2-8.26a1.4,1.4,0,0,0-.88,2.65c10.5,4.27,17.5,12.63,28.73,8.44,7.28-2.72,14.46-5.8,21.68-8.69,13.29-5.33,26.9-10.21,40.15-15.77a6.94,6.94,0,0,1,5.51.05c2.57,1.14,5.15,2.28,7.65,3.54,7.84,4,11.81,12.92,7.88,21.18-3.42,7.2-12.52,9.5-19.32,12.35l-59.38,24.88a59,59,0,0,1-7.21,2.91c-6.65,1.78-13.83-3.62-19.47-6.61-1.7-.9-3.21,1.67-1.51,2.58,4.23,2.24,8.52,5.16,13.07,6.69s8.86.27,13.14-1.53l30.17-12.64,35-14.68a86.88,86.88,0,0,0,10.3-4.68,5.24,5.24,0,0,1,7.24,2.07C275.89,206.35,273.11,212.65,267.27,215.8Z"/><circle class="cls-4" cx="178.12" cy="179.83" r="129.7"/></g></g></svg>