<svg xmlns="http://www.w3.org/2000/svg" viewBox="0 0 359.1 363.05"><defs><style>.cls-1{isolation:isolate;}.cls-2{fill:#25c2e7;}.cls-3{fill:#efce99;}.cls-4{fill:#ddb775;}.cls-5{fill:#c1c1c1;mix-blend-mode:color;}</style></defs><title>BWcrackers</title><g class="cls-1"><g id="Layer_1" data-name="Layer 1"><circle class="cls-2" cx="181.03" cy="183.96" r="130.84"/><path class="cls-3" d="M194.76,106l-39,46.13a12.87,12.87,0,0,0,1.53,18.14,12.87,12.87,0,0,0-18.14,1.53l-39,46.13a12.87,12.87,0,0,0,1.53,18.14l46.13,39A12.87,12.87,0,0,0,166,273.55l39-46.13a12.87,12.87,0,0,0-1.53-18.14,12.87,12.87,0,0,0,18.14-1.53l39-46.13A12.87,12.87,0,0,0,259,143.48l-46.13-39A12.87,12.87,0,0,0,194.76,106Z"/><circle class="cls-4" cx="120.53" cy="225.93" r="4.74"/><circle class="cls-4" cx="149.37" cy="191.78" r="4.74"/><circle class="cls-4" cx="135.48" cy="208.23" r="4.74"/><circle class="cls-4" cx="138.17" cy="239.77" r="4.74"/><circle class="cls-4" cx="167.02" cy="205.62" r="4.74"/><circle class="cls-4" cx="153.12" cy="222.07" r="4.74"/><circle class="cls-4" cx="155.82" cy="253.6" r="4.74"/><circle class="cls-4" cx="184.66" cy="219.46" r="4.74"/><circle class="cls-4" cx="170.77" cy="235.91" r="4.74"/><circle class="cls-4" cx="176.11" cy="160.13" r="4.74"/><circle class="cls-4" cx="204.95" cy="125.99" r="4.74"/><circle class="cls-4" cx="191.06" cy="142.43" r="4.74"/><circle class="cls-4" cx="193.75" cy="173.97" r="4.74"/><circle class="cls-4" cx="222.6" cy="139.82" r="4.74"/><circle class="cls-4" cx="208.7" cy="156.27" r="4.74"/><circle class="cls-4" cx="211.4" cy="187.8" r="4.74"/><circle class="cls-4" cx="240.24" cy="153.66" r="4.74"/><circle class="cls-4" cx="226.35" cy="170.11" r="4.74"/><rect class="cls-4" x="160.54" y="168.9" width="1.97" height="9.93" rx="0.98" transform="translate(-75.53 185.07) rotate(-49.81)"/><rect class="cls-4" x="172.99" y="179.41" width="1.97" height="9.93" rx="0.98" transform="translate(-79.14 198.3) rotate(-49.81)"/><rect class="cls-4" x="185.44" y="189.93" width="1.97" height="9.93" rx="0.98" transform="translate(-82.76 211.54) rotate(-49.81)"/><rect class="cls-4" x="197.89" y="200.44" width="1.97" height="9.93" rx="0.98" transform="translate(-86.38 224.78) rotate(-49.81)"/><circle class="cls-5" cx="180.7" cy="184.14" r="132.98"/></g></g></svg>