<svg xmlns="http://www.w3.org/2000/svg" viewBox="0 0 359.1 363.05"><defs><style>.cls-1{isolation:isolate;}.cls-2{fill:#ecb38d;}.cls-3{fill:#efefef;}.cls-4{fill:#f27a8d;}.cls-5{fill:#797c7d;}.cls-6{fill:#fff;}.cls-7{fill:#c1c1c1;mix-blend-mode:color;}</style></defs><title>BWdocument</title><g class="cls-1"><g id="Layer_1" data-name="Layer 1"><circle class="cls-2" cx="179.55" cy="176.13" r="126.63"/><rect class="cls-3" x="104.03" y="104.27" width="99.6" height="135.12" rx="10.06" transform="matrix(0.99, -0.13, 0.13, 0.99, -21.76, 22.3)"/><polygon class="cls-4" points="143.74 132.17 142.03 119.61 148.17 118.78 149.88 131.33 162.44 129.63 163.31 136.04 151.02 137.71 152.73 150.26 146.31 151.14 144.63 138.71 132.35 140.48 131.46 133.92 143.74 132.17"/><path class="cls-5" d="M126.39,177.39l55.84-7.6c2.31-.31,1.33-3.83-1-3.51l-55.84,7.59c-2.31.32-1.33,3.83,1,3.52Z"/><path class="cls-5" d="M128.43,192.39l55.84-7.59c2.32-.32,1.33-3.83-1-3.52l-55.84,7.6c-2.31.31-1.33,3.83,1,3.51Z"/><path class="cls-5" d="M130.47,207.4l55.84-7.6c2.32-.31,1.33-3.83-1-3.51l-55.84,7.59c-2.31.32-1.33,3.83,1,3.52Z"/><rect class="cls-6" x="139.35" y="139.27" width="135.12" height="99.6" rx="10.06" transform="translate(3.31 381.7) rotate(-85.84)"/><path class="cls-5" d="M178.8,188.85,235,192.94c2.34.17,2.33-3.48,0-3.65L178.8,185.2c-2.34-.17-2.33,3.48,0,3.65Z"/><path class="cls-5" d="M177.7,204,233.91,208c2.34.17,2.33-3.47,0-3.64l-56.21-4.09c-2.34-.17-2.33,3.47,0,3.64Z"/><path class="cls-5" d="M176.6,219.06l56.21,4.09c2.34.17,2.33-3.48,0-3.65l-56.21-4.09c-2.34-.17-2.33,3.48,0,3.65Z"/><path d="M193.57,151.75l15.85-13.5a1.57,1.57,0,0,1,2.18.15L225.37,154a1.66,1.66,0,0,1,.4,1.77,5,5,0,0,1-.75.87,1.66,1.66,0,0,1-2.36.22L211,143.52c-.63-.82-.81-.88-1.82,0l-12.95,11.17a1.48,1.48,0,0,1-1.12.37,2.2,2.2,0,0,1-2-1.66A1.54,1.54,0,0,1,193.57,151.75Z"/><path d="M208.71,146c1.14-1,1.8-.77,2.68.29s8,9.35,8,9.35l1.84,2.31a1.54,1.54,0,0,1,.34,1l-.45,9.22a2.61,2.61,0,0,1-2.89,2.63c-2.89-.11-6-.44-6-.44s-1.06,0-1-1.56.52-7.78.52-7.78a1.21,1.21,0,0,0-1.15-1.43c-1.73-.19-2.88-.21-2.88-.21a1.34,1.34,0,0,0-1.65,1.37c-.17,1.73-.41,6.49-.54,7.55s-.41,1.61-1.8,1.49c-1.82-.17-5.14-.38-5.14-.38a2.44,2.44,0,0,1-2.34-2.86c.15-2.84.68-9.63.68-9.63s0-.43.83-1.26C199,154.47,208.71,146,208.71,146Z"/><path d="M220,140.44c1.17.08,1.92,0,1.8,1.63l-.32,4.45s0,1.44-1.05.08-2.47-3.08-2.47-3.08a1.91,1.91,0,0,1-.42-1.5c.09-1.21.17-1.63,1.08-1.62S220,140.44,220,140.44Z"/><circle class="cls-7" cx="181.46" cy="177.42" r="130.29"/></g></g></svg>