<svg xmlns="http://www.w3.org/2000/svg" viewBox="0 0 359.1 363.05"><defs><style>.cls-1{isolation:isolate;}.cls-2{fill:#c5e4d2;}.cls-3{fill:#ed2f67;}.cls-4{fill:#fdd900;}.cls-5{fill:#fff100;}.cls-6{fill:#ee904b;}.cls-7{fill:#c1c1c1;mix-blend-mode:color;}</style></defs><title>BWflare</title><g class="cls-1"><g id="Layer_1" data-name="Layer 1"><circle class="cls-2" cx="174.44" cy="184.3" r="132.15"/><rect class="cls-3" x="86.43" y="179.28" width="151.54" height="51.97" rx="16.68" transform="translate(-89.89 275.21) rotate(-67.19)"/><path class="cls-4" d="M153.69,173.7s5.21,30.8,33.58,39l-8.83,21S147.31,215.86,153.69,173.7Z"/><path class="cls-4" d="M174.92,242.06s-28.63-13.12-31.4-59.08l-8.36,19.63c-4.31,10.19,13.36,52.47,29.83,63.05Z"/><polygon class="cls-5" points="168.82 81.79 172.39 89.03 180.38 90.2 174.6 95.83 175.97 103.79 168.82 100.03 161.67 103.79 163.04 95.83 157.25 90.2 165.25 89.03 168.82 81.79"/><polygon class="cls-5" points="242.27 109.48 244.97 114.96 251.02 115.84 246.65 120.11 247.68 126.13 242.27 123.29 236.86 126.13 237.89 120.11 233.51 115.84 239.56 114.96 242.27 109.48"/><polygon class="cls-5" points="218.81 91.53 223.15 100.33 232.87 101.75 225.84 108.6 227.5 118.27 218.81 113.71 210.12 118.27 211.78 108.6 204.75 101.75 214.46 100.33 218.81 91.53"/><polygon class="cls-5" points="209.75 71.01 211.89 75.34 216.67 76.04 213.21 79.41 214.03 84.17 209.75 81.92 205.48 84.17 206.3 79.41 202.84 76.04 207.62 75.34 209.75 71.01"/><path class="cls-5" d="M208.39,139.18l38.8-31.38c2-1.62-.84-4.43-2.83-2.83l-38.8,31.38c-2,1.62.84,4.43,2.83,2.83Z"/><path class="cls-5" d="M199,130.46l7.47-27.7c.67-2.49-3.19-3.55-3.86-1.06l-7.47,27.69c-.67,2.49,3.19,3.56,3.86,1.07Z"/><path class="cls-5" d="M182.39,128.18l-1.89-47.5c-.1-2.56-4.1-2.58-4,0l1.88,47.5c.1,2.57,4.11,2.58,4,0Z"/><path class="cls-6" d="M117.59,244.31s16.61,13.62,46.72,22.3L161,281.08a10.64,10.64,0,0,1-13.81,7.66c-10.69-3.67-26.63-9.55-36.72-15.13a10.65,10.65,0,0,1-3.27-15.83Z"/><circle class="cls-7" cx="174.1" cy="183.61" r="132.8"/></g></g></svg>