<svg xmlns="http://www.w3.org/2000/svg" viewBox="0 0 359.1 363.05"><defs><style>.cls-1{isolation:isolate;}.cls-2{fill:#c5e4d2;}.cls-3{fill:#faaf40;}.cls-4{fill:#808184;}.cls-5{fill:#404041;}.cls-6{fill:#fff100;}.cls-7{fill:#6d6e70;}.cls-8{fill:#c1c1c1;mix-blend-mode:color;}</style></defs><title>BWflashlight</title><g class="cls-1"><g id="Layer_1" data-name="Layer 1"><circle class="cls-2" cx="179.61" cy="181.52" r="126.04"/><ellipse class="cls-3" cx="197.09" cy="183.12" rx="19.2" ry="28.04"/><rect class="cls-4" x="74.58" y="165.32" width="121.45" height="35.6" rx="6.55"/><rect class="cls-5" x="109.31" y="191.5" width="25.99" height="9.46" rx="1.32"/><path class="cls-6" d="M202,211.43l94.11,18.86a125.93,125.93,0,0,0,1-93.81L202,159.29Z"/><path class="cls-7" d="M199.47,220.7h-4.63a22.14,22.14,0,0,1-22.14-22.14V168.23a22.69,22.69,0,0,1,22.69-22.69h4.08a5.4,5.4,0,0,1,5.4,5.4V215.3A5.4,5.4,0,0,1,199.47,220.7Z"/><circle class="cls-8" cx="179.64" cy="181.97" r="128.54"/></g></g></svg>