<svg xmlns="http://www.w3.org/2000/svg" viewBox="0 0 359.1 363.05"><defs><style>.cls-1{isolation:isolate;}.cls-2{fill:#ecb38d;}.cls-3{fill:#fff;}.cls-4{fill:#94d7ec;}.cls-5{fill:#888;}.cls-6{fill:#8d8d8d;}.cls-7{fill:#c1c1c1;mix-blend-mode:color;}</style></defs><title>BWid</title><g class="cls-1"><g id="Layer_1" data-name="Layer 1"><circle class="cls-2" cx="175.95" cy="185.41" r="131.81"/><rect class="cls-3" x="124.34" y="133.51" width="142.39" height="81.98" rx="16.96"/><rect class="cls-4" x="143.4" y="146.06" width="36.5" height="41.7" rx="10.57"/><path class="cls-5" d="M198.64,159.35h52a1.86,1.86,0,0,0,0-3.72h-52a1.86,1.86,0,0,0,0,3.72Z"/><path class="cls-5" d="M198.64,176.36h52a1.86,1.86,0,0,0,0-3.71h-52a1.86,1.86,0,0,0,0,3.71Z"/><path class="cls-5" d="M198.64,193.37h52a1.86,1.86,0,0,0,0-3.71h-52a1.86,1.86,0,0,0,0,3.71Z"/><circle class="cls-6" cx="161.65" cy="163.34" r="7.07"/><path class="cls-6" d="M167.06,170.08a1.42,1.42,0,0,0-1.51,0,7.1,7.1,0,0,1-3.81,1.16,7,7,0,0,1-4-1.19,1.44,1.44,0,0,0-1.51,0,13.65,13.65,0,0,0-6.42,12c0,.69-.09,4.05,0,4.8a10.49,10.49,0,0,0,4.16.86h15.35a10.54,10.54,0,0,0,4.06-.81l.1-.09c.05-.52,0-4.5,0-5A13.71,13.71,0,0,0,167.06,170.08Z"/><rect class="cls-3" x="82.27" y="170.47" width="142.39" height="81.98" rx="16.96"/><rect class="cls-4" x="101.33" y="183.02" width="36.5" height="41.7" rx="10.57"/><circle class="cls-6" cx="119.57" cy="200.3" r="7.07"/><path class="cls-6" d="M125,207a1.44,1.44,0,0,0-1.52.05,7.07,7.07,0,0,1-3.81,1.16,7,7,0,0,1-4-1.19,1.44,1.44,0,0,0-1.51-.05,13.64,13.64,0,0,0-6.41,12.05c0,.69-.1,4.05,0,4.8a10.54,10.54,0,0,0,4.17.86h15.35a10.53,10.53,0,0,0,4.05-.81l.11-.09c.05-.52,0-4.5,0-5A13.71,13.71,0,0,0,125,207Z"/><path class="cls-5" d="M155,196.31h52a1.86,1.86,0,0,0,0-3.72H155c-2.38,0-2.39,3.72,0,3.72Z"/><path class="cls-5" d="M155,213.32h52a1.86,1.86,0,0,0,0-3.72H155c-2.38,0-2.39,3.72,0,3.72Z"/><path class="cls-5" d="M155,230.33h52a1.86,1.86,0,0,0,0-3.71H155a1.86,1.86,0,0,0,0,3.71Z"/><circle class="cls-7" cx="176.93" cy="185.62" r="131.79"/></g></g></svg>