<svg xmlns="http://www.w3.org/2000/svg" viewBox="0 0 359.1 363.05"><defs><style>.cls-1{isolation:isolate;}.cls-2{fill:#94d7ec;}.cls-3{fill:#ed2f67;}.cls-4{fill:#ffecca;}.cls-5{fill:#c1c1c1;mix-blend-mode:color;}</style></defs><title>BWleash</title><g class="cls-1"><g id="Layer_1" data-name="Layer 1"><circle class="cls-2" cx="178.55" cy="178.81" r="128.31"/><path class="cls-3" d="M283.27,187.83a12.08,12.08,0,0,1-2.37,6.85,25,25,0,0,1-4.9,5.11,72.2,72.2,0,0,1-11.79,7.52c-1,.55-2.08,1.05-3.11,1.59s-2.1,1-3.16,1.52l-3.18,1.47-3.22,1.38c-4.31,1.79-8.69,3.45-13.13,4.93S229.47,221,224.93,222c-2.27.56-4.55,1-6.84,1.46s-4.58.81-6.88,1.12c-4.61.68-9.23,1.07-13.86,1.42l-3.47.25-3.47.16c-2.32.13-4.64.15-7,.21a235.68,235.68,0,0,1-55.43-6c-9.14-2.13-18.28-4.68-27.12-8.9A58.85,58.85,0,0,1,88,203.7a27.94,27.94,0,0,1-5.69-6.34A19,19,0,0,1,80.28,193a7.75,7.75,0,0,1-.32-1.24l-.24-1.28a21.12,21.12,0,0,1-.11-2.64,21.68,21.68,0,0,1,.41-2.58L80.4,184a6.87,6.87,0,0,1,.45-1.15A16.47,16.47,0,0,1,83.33,179a26.53,26.53,0,0,1,6.11-5.15c.53-.35,1.07-.66,1.6-1s1.07-.63,1.61-.9c1.09-.54,2.16-1.11,3.26-1.57,2.16-1,4.38-1.82,6.56-2.64,8.79-3.16,17.7-5.23,26.61-7.31q6.69-1.53,13.41-3c4.49-.95,9-1.88,13.52-2.74a226,226,0,0,1,27.44-3.66,158.16,158.16,0,0,1,27.69.66,130.55,130.55,0,0,1,13.73,2.27,137.74,137.74,0,0,1,13.49,3.64c4.44,1.44,8.83,3.08,13.14,4.85l3.22,1.38,3.17,1.46c1.06.51,2.11,1,3.15,1.51s2.08,1,3.11,1.58A73.44,73.44,0,0,1,275.93,176a25.18,25.18,0,0,1,4.93,5.06A12.09,12.09,0,0,1,283.27,187.83Zm-1.8,0a9.36,9.36,0,0,0-2.16-5.67,18.89,18.89,0,0,0-4.81-4.25,33,33,0,0,0-5.81-3,50,50,0,0,0-6.24-2.16c-2.12-.62-4.29-1.09-6.45-1.53l-3.28-.56-3.29-.47c-4.39-.58-8.82-.92-13.23-1.18l-6.61-.37-6.61-.29-13.17-.62c-8.77-.48-17.54-1-26.36-1.56s-17.69-1.29-26.61-1.45c-4.46-.12-8.92-.08-13.38.15-2.23.1-4.44.31-6.67.49s-4.43.49-6.62.86a108.29,108.29,0,0,0-13,2.79l-3.19.94L110.84,171c-1,.39-2.08.74-3.09,1.15s-2,.83-3,1.29A45.56,45.56,0,0,0,93.93,180c-.36.34-.76.65-1.09,1l-1,1c-.3.35-.55.72-.84,1.07a10.59,10.59,0,0,0-.68,1.07,5.49,5.49,0,0,0-.86,3.67,6.51,6.51,0,0,0,1.83,3,18.57,18.57,0,0,0,4,3c.38.24.8.46,1.23.68s.83.44,1.28.65c.91.39,1.77.81,2.72,1.17,1.83.79,3.8,1.42,5.75,2.08A167.64,167.64,0,0,0,131.23,204c4.27.65,8.59,1.16,12.93,1.57s8.69.72,13.05,1c8.73.51,17.48.72,26.24.89,4.39,0,8.77.09,13.15.06s8.77-.15,13.15-.25q3.3,0,6.58-.14l6.6-.17,6.61-.18c2.19-.1,4.41-.16,6.61-.29,4.42-.23,8.85-.54,13.24-1.11l3.28-.47,3.28-.54c2.16-.44,4.33-.9,6.44-1.52a49.93,49.93,0,0,0,6.24-2.15,34.23,34.23,0,0,0,5.81-3,19.16,19.16,0,0,0,4.82-4.21A9.39,9.39,0,0,0,281.47,187.83Z"/><path class="cls-4" d="M225.82,216.58a9.58,9.58,0,1,0-13-8.93,9.1,9.1,0,0,0,0,.91H172.54a9.08,9.08,0,0,0,.05-.91,9.59,9.59,0,1,0-13.05,8.93,9.58,9.58,0,1,0,13,9.59h40.22a9.59,9.59,0,1,0,13-9.59Z"/><circle class="cls-5" cx="181.57" cy="185.23" r="135.42"/></g></g></svg>