<svg xmlns="http://www.w3.org/2000/svg" viewBox="0 0 359.1 363.05"><defs><style>.cls-1{isolation:isolate;}.cls-2{fill:#eab3d2;}.cls-3{fill:#6e9852;}.cls-4{fill:#231f20;}.cls-5{fill:#91c56e;}.cls-6{fill:#fde997;}.cls-7{fill:#e4c649;}.cls-8{fill:#c1c1c1;mix-blend-mode:color;}</style></defs><title>BWmoney</title><g class="cls-1"><g id="Layer_1" data-name="Layer 1"><circle class="cls-2" cx="182.48" cy="185.19" r="127.16"/><rect class="cls-3" x="77.35" y="147.76" width="136.46" height="63.22" rx="12.91" transform="translate(-65.26 273.79) rotate(-75.06)"/><path class="cls-4" d="M138,190.21a8.28,8.28,0,0,1-5.72-4.85,13.67,13.67,0,0,1-.76-8.4l-5-1.35a1.11,1.11,0,0,1-.79-1.37h0a1.12,1.12,0,0,1,1.36-.79l5,1.35a15.77,15.77,0,0,1,4.2-7.29c1.92-1.81,3.77-2.47,5.55-2a3.94,3.94,0,0,1,2.36,1.64,3.41,3.41,0,0,1,.38,2.89,4.16,4.16,0,0,1-1.64,2.5,3.21,3.21,0,0,1-2.73.36,7,7,0,0,1-2.13-1q-1-.66-1.59-1.08a17.19,17.19,0,0,0-1.31,1.74,8.66,8.66,0,0,0-1.23,2.71l9.79,2.61.23-.57c.07-.18.16-.39.25-.63a11.75,11.75,0,0,1,4.29-5.94,7.37,7.37,0,0,1,6.23-.93,8.39,8.39,0,0,1,2.84,1.37,8.69,8.69,0,0,1,2.26,2.47,9.63,9.63,0,0,1,1.34,3.76,14.32,14.32,0,0,1-.21,5.07l3.67,1a1.1,1.1,0,0,1,.79,1.36h0a1.11,1.11,0,0,1-1.37.79l-3.67-1a15.46,15.46,0,0,1-3.8,6.75q-2.43,2.31-4.91,1.65a3.81,3.81,0,0,1-2.28-1.58,3.25,3.25,0,0,1-.37-2.77,3.9,3.9,0,0,1,1.57-2.38,3.08,3.08,0,0,1,2.61-.33,6.28,6.28,0,0,1,1.92.87l1.61,1.07a6.63,6.63,0,0,0,.94-1.51,17.25,17.25,0,0,0,.86-2.26l-8.92-2.38c-.08.21-.19.48-.33.8s-.27.6-.37.84a12.55,12.55,0,0,1-4.64,6A7.73,7.73,0,0,1,138,190.21Zm12.39-10.53,8.72,2.33a6.83,6.83,0,0,0-.44-4.21,3.85,3.85,0,0,0-2.52-2.09,4,4,0,0,0-3.24.29,6,6,0,0,0-2.14,2.8c-.09.21-.16.37-.21.47A3.69,3.69,0,0,0,150.37,179.68Zm-13.59,4.72a4.22,4.22,0,0,0,3.21-.29,6.28,6.28,0,0,0,2.46-3l.24-.54c.09-.21.17-.41.26-.61l-9.6-2.56a7,7,0,0,0,.5,4.75A4.74,4.74,0,0,0,136.78,184.4Z"/><rect class="cls-5" x="103.73" y="164.57" width="136.46" height="63.22" rx="12.91" transform="translate(-88.17 176.51) rotate(-44.44)"/><path class="cls-4" d="M159.91,201.63a8.28,8.28,0,0,1-2.46-7.08,13.78,13.78,0,0,1,3.62-7.62l-3.65-3.73a1.11,1.11,0,0,1,0-1.58h0a1.12,1.12,0,0,1,1.58,0l3.66,3.73a15.71,15.71,0,0,1,7.33-4.13q3.85-.87,5.79,1.1A4.05,4.05,0,0,1,177,185a3.39,3.39,0,0,1-1.15,2.67,4.07,4.07,0,0,1-2.68,1.32,3.24,3.24,0,0,1-2.54-1.07,7.58,7.58,0,0,1-1.34-1.92c-.36-.74-.63-1.32-.82-1.74a16.67,16.67,0,0,0-2,.82,8.86,8.86,0,0,0-2.44,1.7l7.1,7.24.49-.37.54-.42a11.71,11.71,0,0,1,6.71-2.92,7.4,7.4,0,0,1,5.84,2.37,8.63,8.63,0,0,1,1.74,2.62,8.77,8.77,0,0,1,.69,3.28,9.76,9.76,0,0,1-.76,3.92,14.13,14.13,0,0,1-2.77,4.25l2.67,2.72a1.12,1.12,0,0,1,0,1.58h0a1.12,1.12,0,0,1-1.58,0L182,208.27a15.4,15.4,0,0,1-6.7,3.86q-3.28.76-5.08-1.08a3.82,3.82,0,0,1-1.15-2.51,3.25,3.25,0,0,1,1.09-2.58,3.86,3.86,0,0,1,2.57-1.25,3.14,3.14,0,0,1,2.41,1,6.29,6.29,0,0,1,1.21,1.72c.3.65.58,1.23.83,1.74a6.15,6.15,0,0,0,1.58-.82,16.08,16.08,0,0,0,1.89-1.5l-6.46-6.6a6.12,6.12,0,0,1-.69.52c-.29.2-.54.38-.74.54a12.5,12.5,0,0,1-7,2.8A7.7,7.7,0,0,1,159.91,201.63Zm16-2.75,6.32,6.45a6.79,6.79,0,0,0,1.76-3.85,3.87,3.87,0,0,0-1.1-3.09A4,4,0,0,0,180,197a6,6,0,0,0-3.27,1.31,4.65,4.65,0,0,1-.42.3ZM161.83,196a4.25,4.25,0,0,0,2.91,1.39,6.32,6.32,0,0,0,3.62-1.28l.48-.35.53-.39-7-7.09a7,7,0,0,0-2,4.33A4.72,4.72,0,0,0,161.83,196Z"/><ellipse class="cls-6" cx="206.46" cy="252.37" rx="39.1" ry="13.53"/><path class="cls-7" d="M245.57,252.37a6.73,6.73,0,0,1-2.43,4.75,19.18,19.18,0,0,1-4.55,3.05,50.86,50.86,0,0,1-10.31,3.75A106,106,0,0,1,206.46,267a94,94,0,0,1-22.17-1.53A49.77,49.77,0,0,1,173.42,262a21.52,21.52,0,0,1-5.08-3.32,11.26,11.26,0,0,1-2.15-2.63,7.06,7.06,0,0,1,0-7.36,11.34,11.34,0,0,1,2.16-2.63,21.57,21.57,0,0,1,5.08-3.33,48.9,48.9,0,0,1,10.87-3.47,94.59,94.59,0,0,1,22.17-1.54,106.69,106.69,0,0,1,21.82,3.1,50.83,50.83,0,0,1,10.31,3.74,19.8,19.8,0,0,1,4.55,3.05A6.75,6.75,0,0,1,245.57,252.37Zm0,0a6.71,6.71,0,0,0-2.48-4.69,19.35,19.35,0,0,0-4.57-3,46.13,46.13,0,0,0-10.38-3.3,92.25,92.25,0,0,0-21.68-1.48,104.49,104.49,0,0,0-21.31,3,48.69,48.69,0,0,0-9.83,3.57,17.35,17.35,0,0,0-4,2.68,4.62,4.62,0,0,0-1.72,3.14,4.54,4.54,0,0,0,1.72,3.14,17.17,17.17,0,0,0,4,2.69,47.87,47.87,0,0,0,9.83,3.57,103.8,103.8,0,0,0,21.31,3,92.26,92.26,0,0,0,21.68-1.49,46.13,46.13,0,0,0,10.38-3.3,19.35,19.35,0,0,0,4.57-3A6.71,6.71,0,0,0,245.57,252.37Z"/><ellipse class="cls-6" cx="206.46" cy="244.15" rx="39.1" ry="13.53"/><path class="cls-7" d="M245.57,244.15a6.75,6.75,0,0,1-2.43,4.76,19.48,19.48,0,0,1-4.55,3.05,50.83,50.83,0,0,1-10.31,3.74,106.67,106.67,0,0,1-21.82,3.09,94.59,94.59,0,0,1-22.17-1.54,48.71,48.71,0,0,1-10.87-3.47,21.21,21.21,0,0,1-5.08-3.32,11.06,11.06,0,0,1-2.15-2.63,7.38,7.38,0,0,1-1-3.68,7.51,7.51,0,0,1,1-3.68,11.55,11.55,0,0,1,2.16-2.63,21.21,21.21,0,0,1,5.08-3.32,47.89,47.89,0,0,1,10.87-3.47,93.53,93.53,0,0,1,22.17-1.54,106,106,0,0,1,21.82,3.09,50.27,50.27,0,0,1,10.31,3.75,19.18,19.18,0,0,1,4.55,3.05A6.73,6.73,0,0,1,245.57,244.15Zm0,0a6.71,6.71,0,0,0-2.48-4.69,19.35,19.35,0,0,0-4.57-3,47.17,47.17,0,0,0-10.38-3.3,92.25,92.25,0,0,0-21.68-1.47,103.79,103.79,0,0,0-21.31,3,48.69,48.69,0,0,0-9.83,3.57,17.38,17.38,0,0,0-4,2.69,3.72,3.72,0,0,0,0,6.27,17.17,17.17,0,0,0,4,2.69,47.87,47.87,0,0,0,9.83,3.57,103.8,103.8,0,0,0,21.31,3,91.73,91.73,0,0,0,21.68-1.49,46.62,46.62,0,0,0,10.38-3.29,19.67,19.67,0,0,0,4.57-3A6.75,6.75,0,0,0,245.57,244.15Z"/><ellipse class="cls-6" cx="205.71" cy="235.93" rx="39.1" ry="13.53"/><path class="cls-7" d="M244.82,235.93a6.77,6.77,0,0,1-2.43,4.76,19.44,19.44,0,0,1-4.55,3,50.86,50.86,0,0,1-10.31,3.75,106,106,0,0,1-21.82,3.08A94,94,0,0,1,183.54,249a49.07,49.07,0,0,1-10.87-3.47,21.21,21.21,0,0,1-5.08-3.32,11.26,11.26,0,0,1-2.15-2.63,7.38,7.38,0,0,1-1-3.68,7.48,7.48,0,0,1,1-3.68,11.34,11.34,0,0,1,2.16-2.63,21,21,0,0,1,5.08-3.32,48.42,48.42,0,0,1,10.87-3.48,94.59,94.59,0,0,1,22.17-1.54,106.69,106.69,0,0,1,21.82,3.1,50.27,50.27,0,0,1,10.31,3.75,19.18,19.18,0,0,1,4.55,3.05A6.73,6.73,0,0,1,244.82,235.93Zm0,0a6.71,6.71,0,0,0-2.48-4.69,19.35,19.35,0,0,0-4.57-3,46.64,46.64,0,0,0-10.38-3.3,92.25,92.25,0,0,0-21.68-1.47,103.79,103.79,0,0,0-21.31,3,48.69,48.69,0,0,0-9.83,3.57,17.07,17.07,0,0,0-4,2.69,3.72,3.72,0,0,0,0,6.27,17.17,17.17,0,0,0,4,2.69,47.87,47.87,0,0,0,9.83,3.57,103.8,103.8,0,0,0,21.31,3,92.26,92.26,0,0,0,21.68-1.49,46.13,46.13,0,0,0,10.38-3.3,19.35,19.35,0,0,0,4.57-3A6.71,6.71,0,0,0,244.82,235.93Z"/><ellipse class="cls-6" cx="206.46" cy="228.54" rx="39.1" ry="13.53"/><path class="cls-7" d="M245.57,228.54a6.73,6.73,0,0,1-2.43,4.75,19.18,19.18,0,0,1-4.55,3.05,50.83,50.83,0,0,1-10.31,3.74,106.67,106.67,0,0,1-21.82,3.09,94.05,94.05,0,0,1-22.17-1.54,49.2,49.2,0,0,1-10.87-3.46,21.84,21.84,0,0,1-5.08-3.32,11.26,11.26,0,0,1-2.15-2.63,7.41,7.41,0,0,1-1-3.68,7.52,7.52,0,0,1,1-3.69,11.55,11.55,0,0,1,2.16-2.63,21.52,21.52,0,0,1,5.08-3.32,48.39,48.39,0,0,1,10.87-3.47,93.53,93.53,0,0,1,22.17-1.54A106.67,106.67,0,0,1,228.28,217a51.47,51.47,0,0,1,10.31,3.75,19.18,19.18,0,0,1,4.55,3.05A6.73,6.73,0,0,1,245.57,228.54Zm0,0a6.71,6.71,0,0,0-2.48-4.7,19.67,19.67,0,0,0-4.57-3,46.62,46.62,0,0,0-10.38-3.29,92.25,92.25,0,0,0-21.68-1.48,104.48,104.48,0,0,0-21.31,3,48.69,48.69,0,0,0-9.83,3.57,17.38,17.38,0,0,0-4,2.69,4.62,4.62,0,0,0-1.72,3.14,4.52,4.52,0,0,0,1.72,3.13,16.86,16.86,0,0,0,4,2.69,48.49,48.49,0,0,0,9.83,3.58,103.79,103.79,0,0,0,21.31,3,92.25,92.25,0,0,0,21.68-1.48,47.17,47.17,0,0,0,10.38-3.3,19.35,19.35,0,0,0,4.57-3A6.71,6.71,0,0,0,245.57,228.54Z"/><circle class="cls-6" cx="237.79" cy="236.11" r="29.76"/><path class="cls-7" d="M267.55,236.11A30.91,30.91,0,0,1,225.81,265a30.79,30.79,0,0,1-17.48-16.71,30.93,30.93,0,0,1,0-24.41,30.83,30.83,0,0,1,50.72-9.06A30.79,30.79,0,0,1,267.55,236.11Zm0,0a29.9,29.9,0,0,0-2.35-11.35,28.56,28.56,0,0,0-16.28-15.52,28.71,28.71,0,0,0-38.69,26.87,27.59,27.59,0,0,0,2,10.58,28.36,28.36,0,0,0,5.82,9.13,28.61,28.61,0,0,0,47.12-8.35A29.91,29.91,0,0,0,267.55,236.11Z"/><path class="cls-7" d="M240.08,228.65a1.82,1.82,0,0,1,0-1.47,2.8,2.8,0,0,0-2.94-.2l3,5.91.39-.08,2.23-.45a10.49,10.49,0,0,1,1.64-.2,6.29,6.29,0,0,1,1.29.19,7.26,7.26,0,0,1,1.36.51,5.43,5.43,0,0,1,2.58,2.6,6.41,6.41,0,0,1,.63,3.63,6.5,6.5,0,0,1-1.43,3.46,9.41,9.41,0,0,1-1.11,1.25,17.54,17.54,0,0,1-1.48,1.29l1.09,2.18c.4.78.14,1.41-.77,1.86s-1.54.28-1.93-.51l-1.08-2.15a10.58,10.58,0,0,1-6,.79,5.28,5.28,0,0,1-3.79-2.95,3.74,3.74,0,0,1-.4-2.62,2.74,2.74,0,0,1,1.52-1.83,2.29,2.29,0,0,1,1.72-.16,2,2,0,0,1,1.3,1.07,1.74,1.74,0,0,1-.59,2.47,3,3,0,0,0,2,1,6.16,6.16,0,0,0,2.87-.54l-3.41-6.81c-1,.19-1.84.34-2.52.44a13.94,13.94,0,0,1-1.45.18,5.16,5.16,0,0,1-1.4-.11,4.51,4.51,0,0,1-1.24-.43,5.31,5.31,0,0,1-2.15-2.35,6,6,0,0,1-.57-1.76,6.56,6.56,0,0,1,.43-3.6,6.84,6.84,0,0,1,.95-1.58,8.58,8.58,0,0,1,1-1c.39-.35.83-.71,1.29-1.07l-1-2a1.31,1.31,0,0,1,.67-2,1.34,1.34,0,0,1,2,.65l1,2a9.64,9.64,0,0,1,5.11-.43,4.33,4.33,0,0,1,3.14,2.3,2.42,2.42,0,0,1,.17,1.91,2.36,2.36,0,0,1-1.23,1.42,2.21,2.21,0,0,1-1.66.18A1.78,1.78,0,0,1,240.08,228.65ZM233,232.49a2.16,2.16,0,0,0,1.41,1.22,6.61,6.61,0,0,0,2.62-.09l-2.64-5.29a3.81,3.81,0,0,0-1.57,2A2.82,2.82,0,0,0,233,232.49Zm4,1.13a.14.14,0,0,0,.11,0l.31-.06.27,0-.39.69Zm4.62,2.48h0a2.68,2.68,0,0,0-.6.19l.39-.7Zm4.69,1.35a2.84,2.84,0,0,0-1.73-1.59,5.58,5.58,0,0,0-3,.24l3.12,6.22a3.85,3.85,0,0,0,1-.9,5.37,5.37,0,0,0,.68-1.15A3.19,3.19,0,0,0,246.35,237.45Z"/><circle class="cls-8" cx="182.26" cy="185.02" r="130.39"/></g></g></svg>