<svg xmlns="http://www.w3.org/2000/svg" viewBox="0 0 359.1 363.05"><defs><style>.cls-1{isolation:isolate;}.cls-2{fill:#9493c7;}.cls-3{fill:#ecb38d;}.cls-4{fill:#25c2e7;}.cls-5{fill:#91c56e;}.cls-6{fill:#c6a88c;}.cls-7{fill:none;stroke:#b7b7b7;stroke-miterlimit:10;stroke-width:2.05px;}.cls-8{fill:#c1c1c1;mix-blend-mode:color;}</style></defs><title>BWphonelist</title><g class="cls-1"><g id="Layer_1" data-name="Layer 1"><circle class="cls-2" cx="175.55" cy="186.23" r="125.1"/><rect class="cls-3" x="222.46" y="129.58" width="16.56" height="37.77" rx="5.54"/><rect class="cls-4" x="222.46" y="167.35" width="16.56" height="37.77" rx="5.54"/><rect class="cls-5" x="222.46" y="205.12" width="16.56" height="37.77" rx="5.54"/><rect class="cls-6" x="106.53" y="119.65" width="122.36" height="138.79" rx="16.89"/><path d="M196.73,159.69a8.9,8.9,0,0,0-1.89-.2l-18.65-4.08a74.43,74.43,0,0,0-15.65.1l-19.4,4a8.71,8.71,0,0,0-1.87.2c-2.77.17-5,1.86-5,3.93v11.27c0,3.35,3.73,6.06,8.32,6.06h1.59c4.6,0,8.32-2.71,8.32-6.06h0a2,2,0,0,1,.47-1.21c1.23-1.68,6.53-6,9.15-6h11.69c2.67,0,8.21,4.39,9.23,6.19a2,2,0,0,1,.29,1h0c0,3.35,3.72,6.06,8.32,6.06h1.59c4.6,0,8.32-2.71,8.32-6.06V163.62C201.61,161.57,199.47,159.89,196.73,159.69Z"/><path d="M133.93,175.52H151.5a7.53,7.53,0,0,1,7.53,7.53v2a4.09,4.09,0,0,1-4.09,4.09H130.49A4.09,4.09,0,0,1,126.4,185v-2A7.53,7.53,0,0,1,133.93,175.52Z" transform="translate(-33.24 31.83) rotate(-11.41)"/><path d="M183.93,175.52h17.57a7.53,7.53,0,0,1,7.53,7.53v2.1a4.09,4.09,0,0,1-4.09,4.09H180.49a4.09,4.09,0,0,1-4.09-4.09v-2.1a7.53,7.53,0,0,1,7.53-7.53Z" transform="translate(42.66 -36.45) rotate(12.14)"/><path d="M155.23,188.21H180.7a22.24,22.24,0,0,1,22.24,22.24v7.18a5.42,5.42,0,0,1-5.42,5.42H138.41a5.42,5.42,0,0,1-5.42-5.42v-7.18A22.24,22.24,0,0,1,155.23,188.21Z"/><path d="M172.87,178h-1.93a.36.36,0,0,0-.37.37v3.34a.37.37,0,0,1-.37.37h-4.54a.36.36,0,0,1-.36-.37v-3.34a.37.37,0,0,0-.37-.37h-1.87a2.68,2.68,0,0,0-2.68,2.68V188a2.68,2.68,0,0,0,2.68,2.68h3a2.29,2.29,0,0,0,1.63-.68.37.37,0,0,1,.53,0,2.31,2.31,0,0,0,1.64.68h3a2.68,2.68,0,0,0,2.68-2.68v-7.31A2.68,2.68,0,0,0,172.87,178Z"/><circle class="cls-7" cx="167.97" cy="204.17" r="10.43"/><circle class="cls-8" cx="174.97" cy="186.82" r="127.69"/></g></g></svg>