<svg xmlns="http://www.w3.org/2000/svg" viewBox="0 0 359.1 363.05"><defs><style>.cls-1{isolation:isolate;}.cls-2{fill:#f3e18e;}.cls-3{fill:#336aaa;}.cls-4{fill:#6490bf;}.cls-5{fill:#4673b7;}.cls-6{fill:#94d7ec;}.cls-7{fill:#6f92c5;}.cls-8{fill:#c1c1c1;mix-blend-mode:color;}</style></defs><title>BWshoes</title><g class="cls-1"><g id="Layer_1" data-name="Layer 1"><circle class="cls-2" cx="181.69" cy="182.83" r="130.58"/><path class="cls-3" d="M127.19,142.94c1.64.37,2.41,1.95,3.27,3.5,3.24,5.9,7.09,7.33,34.18,7.9,25.52.53,38-12.05,42.79-18.84a6.1,6.1,0,0,1,7.38-2.15c13.24,5.54,38.27,28.19,51.48,32.44,17.63,5.67,21.86,6.21,26.9,15.36a13.54,13.54,0,0,1,1.66,6.53v7.5c0,6.48-4.88,11.73-10.91,11.73H127.25c-4.68,0-8.48-4.08-8.48-9.12V146.62a4.3,4.3,0,0,1,5.06-4.43Z"/><path class="cls-4" d="M286,206.91H127.6c-4.87,0-8.83-4.24-8.83-9.47V194a3.54,3.54,0,0,1,3.41-3.66H291.44a3.54,3.54,0,0,1,3.41,3.66v3.49C294.85,202.67,290.9,206.91,286,206.91Z"/><path class="cls-5" d="M97.12,152c1.53.73,2,2.46,2.5,4.16,2,6.51,5.48,8.79,31.83,15.53,24.83,6.36,39.48-3.1,45.55-8.63a6,6,0,0,1,7.63-.41c11.85,8.44,34.65,39.1,43.87,43.46,16.21,7.65,20.9,13.3,23.27,21a13.91,13.91,0,0,1,.31,6.78l-1.51,7.41c-1.28,6.33-7.1,10.35-13,9l-153.1-35.8c-4.57-1.07-7.47-5.93-6.47-10.85l10.15-50A4.16,4.16,0,0,1,94,150.5Z"/><path class="cls-6" d="M183.77,195.39l18-13.21c1.44-1.05,0-3.4-1.48-2.34l-18,13.2c-1.44,1.06,0,3.41,1.49,2.35Z"/><path class="cls-6" d="M190.57,202.71l18-13.2c1.44-1.06,0-3.41-1.48-2.35l-18,13.21c-1.44,1,0,3.4,1.49,2.34Z"/><path class="cls-6" d="M197.37,210l18-13.21c1.44-1.05,0-3.4-1.48-2.34l-18,13.2c-1.43,1.06,0,3.41,1.49,2.35Z"/><path class="cls-6" d="M219,163.56l14.79-16.74c1.18-1.34-.76-3.32-2-2L217,161.58c-1.18,1.34.76,3.32,1.95,2Z"/><path class="cls-6" d="M227.18,169.27,242,152.53c1.18-1.34-.76-3.32-1.95-2l-14.79,16.74c-1.18,1.34.77,3.32,2,2Z"/><path class="cls-6" d="M235.39,175l14.79-16.74c1.18-1.34-.77-3.32-2-2L233.44,173c-1.18,1.34.76,3.32,1.95,2Z"/><path class="cls-7" d="M239.62,252.43,84.83,216.23c-4.76-1.12-7.78-6.16-6.74-11.27l.69-3.41a3.42,3.42,0,0,1,4.06-2.8l165.37,38.68a3.67,3.67,0,0,1,2.61,4.35l-.69,3.41C249.09,250.3,244.39,253.54,239.62,252.43Z"/><circle class="cls-8" cx="181.62" cy="182.83" r="132.66"/></g></g></svg>