<svg xmlns="http://www.w3.org/2000/svg" viewBox="0 0 359.1 363.05"><defs><style>.cls-1{isolation:isolate;}.cls-2{fill:#ecb38d;}.cls-3{fill:#e8e7e7;}.cls-4{fill:#f6f7f7;}.cls-5{fill:#e2e2e2;}.cls-6{fill:#847367;}.cls-7{fill:#bf9b7d;}.cls-8{fill:#c1c1c1;mix-blend-mode:color;}</style></defs><title>BWtoiletpaper</title><g class="cls-1"><g id="Layer_1" data-name="Layer 1"><circle class="cls-2" cx="183.74" cy="190.09" r="128.83"/><rect class="cls-3" x="100.57" y="152.51" width="116.96" height="90.77" rx="9.1" transform="translate(-10.72 9.12) rotate(-3.18)"/><path class="cls-4" d="M260.25,161.79c0-7.22-8.27-11-24.15-11l-45.77-.43c-15.88,0-25.82,4.19-25.82,11.41V236a6.32,6.32,0,0,0,.26,1.67c.06,1.91,1.59,3.73,4.29,5.37,4,2.83,10.28,4.91,17.69,5.69a153,153,0,0,0,26.74,2.2A131.75,131.75,0,0,0,244,247.77a40.75,40.75,0,0,0,6.81-2.1c5.75-2.22,9.08-5,9.16-8a6.19,6.19,0,0,0,.26-1.66Z"/><path class="cls-5" d="M260,159.84c0,7.39-19.6,13.37-46.51,13.37s-48.73-6-48.73-13.37,21.82-13.37,48.73-13.37S260,152.46,260,159.84Z"/><path class="cls-6" d="M235.36,159.84c0,3.56-9.45,6.45-22.43,6.45s-23.51-2.89-23.51-6.45,10.52-6.45,23.51-6.45S235.36,156.28,235.36,159.84Z"/><path class="cls-7" d="M212.93,166.87c-11.68,0-24.09-2.46-24.09-7s12.41-7,24.09-7c13.33,0,23,3,23,7S226.26,166.87,212.93,166.87Zm0-12.9c-13.52,0-22.93,3.09-22.93,5.87s9.41,5.87,22.93,5.87,21.86-3,21.86-5.87S226.43,154,212.93,154Z"/><circle class="cls-8" cx="181.59" cy="190.74" r="131.79"/></g></g></svg>