<svg xmlns="http://www.w3.org/2000/svg" viewBox="0 0 359.1 363.05"><defs><style>.cls-1{isolation:isolate;}.cls-2{fill:#9493c7;}.cls-3{fill:#f9a75e;}.cls-4{fill:#f38a66;}.cls-5{fill:#dddddc;}.cls-6{fill:#91c56e;}.cls-7{fill:#c1c1c1;mix-blend-mode:color;}</style></defs><title>BWtoolbox</title><g class="cls-1"><g id="Layer_1" data-name="Layer 1"><circle class="cls-2" cx="176.49" cy="183.52" r="130.75"/><rect class="cls-3" x="101.79" y="112.45" width="151.87" height="103.68" rx="21.49"/><rect class="cls-4" x="117.97" y="126.02" width="119.49" height="86.17" rx="16.1"/><path class="cls-5" d="M226.73,160.92l-1.68-1.77a1.72,1.72,0,0,0-2.44,0l-6.92,6.54a3.9,3.9,0,0,1-5.52.12l-2.46-2.6a3.91,3.91,0,0,1,.42-5.51l6.91-6.54a1.74,1.74,0,0,0,.19-2.44l-2.17-2.29a5.3,5.3,0,0,0-7.46.15l-12.47,11.81a5.28,5.28,0,0,0-.56,7.43l2.08,2.2L158.82,202l9.67,10.21,35.82-33.91,1.93,2a5.28,5.28,0,0,0,7.45-.15l12.47-11.81A5.28,5.28,0,0,0,226.73,160.92Z"/><polygon class="cls-5" points="142.05 154.41 134.59 150.19 130.85 154.46 136 161.31 138.84 161.3 138.61 161.56 168.3 187.63 172.32 183.04 142.64 156.97 142.41 157.23 142.05 154.41"/><path class="cls-6" d="M200.86,204.51l-7.58,8.63a4.44,4.44,0,0,1-6.43.26l-28.77-27.94a4.45,4.45,0,0,1-.24-6.12l4.92-5.6a4.43,4.43,0,0,1,6.09-.55l31.43,24.92A4.43,4.43,0,0,1,200.86,204.51Z"/><rect class="cls-3" x="95.15" y="197.81" width="165.14" height="59.9" rx="13.63"/><circle class="cls-7" cx="176.07" cy="184.43" r="131.83"/></g></g></svg>