<svg id="Layer_1" data-name="Layer 1" xmlns="http://www.w3.org/2000/svg" viewBox="0 0 359.1 363.05"><defs><style>.cls-1{fill:#f27c7b;}.cls-2{fill:#fffdf3;}</style></defs><title>additem</title><rect class="cls-1" x="49.24" y="52.58" width="257.85" height="257.85" rx="68.91"/><path class="cls-2" d="M162.68,157.94V113.49a8.13,8.13,0,0,1,8.13-8.13h13.43a8.13,8.13,0,0,1,8.13,8.13v44.4A8.13,8.13,0,0,0,200.5,166h44.4a8.13,8.13,0,0,1,8.13,8.13v14.71A8.13,8.13,0,0,1,244.9,197H201.79a8.13,8.13,0,0,0-8.13,8.14v44.39a8.13,8.13,0,0,1-8.13,8.13H170.81a8.13,8.13,0,0,1-8.13-8.13V205.83a8.13,8.13,0,0,0-8.2-8.13l-43,.35a8.13,8.13,0,0,1-8.2-8.13V174.48a8.13,8.13,0,0,1,8.08-8.13l43.21-.28A8.13,8.13,0,0,0,162.68,157.94Z"/></svg>