<svg id="Layer_1" data-name="Layer 1" xmlns="http://www.w3.org/2000/svg" viewBox="0 0 359.1 363.05"><defs><style>.cls-1{fill:#eab3d2;}.cls-2{fill:#f3e18e;}.cls-3{fill:#94d7ec;}.cls-4{fill:#ffcd71;}.cls-5{fill:#919090;}</style></defs><title>babybottle</title><circle class="cls-1" cx="175.48" cy="185.78" r="130.17"/><circle class="cls-2" cx="174.02" cy="106.26" r="12.67"/><rect class="cls-3" x="128.76" y="124.81" width="90.52" height="160.47" rx="32.75"/><rect class="cls-4" x="141.82" y="113.72" width="64.4" height="21.65" rx="10.27"/><path class="cls-5" d="M141.82,187.64h44.87a1.83,1.83,0,0,0,0-3.66H141.82a1.83,1.83,0,0,0,0,3.66Z"/><path class="cls-5" d="M141.82,206.88h44.87a1.83,1.83,0,0,0,0-3.66H141.82a1.83,1.83,0,0,0,0,3.66Z"/><path class="cls-5" d="M141.82,226.12h44.87a1.83,1.83,0,0,0,0-3.66H141.82a1.83,1.83,0,0,0,0,3.66Z"/></svg>