<svg id="Layer_1" data-name="Layer 1" xmlns="http://www.w3.org/2000/svg" viewBox="0 0 359.1 363.05"><defs><style>.cls-1{fill:#f27a8d;}.cls-2{fill:#797c7d;}.cls-3{fill:#94d7ec;}.cls-4{fill:#383838;}</style></defs><title>car</title><path class="cls-1" d="M279,156.17H252.66l-17.73-17.74a63.35,63.35,0,0,0-44.81-18.56H142.74a32.27,32.27,0,0,0-24.33,11.06l-22,25.24H76.92a32,32,0,0,0-32,32V206a14.86,14.86,0,0,0,14.86,14.87H313.87A14.86,14.86,0,0,0,328.73,206h0A49.78,49.78,0,0,0,279,156.17Z"/><circle class="cls-2" cx="106.19" cy="215.15" r="28.03"/><circle class="cls-2" cx="255.64" cy="215.15" r="28.03"/><path class="cls-3" d="M183.29,129.61a2.52,2.52,0,0,1,2.51-2.52c7.36-.06,25.85,1.76,39.15,14.65,6.59,6.39,10.44,10.47,12.69,13a2.52,2.52,0,0,1-1.9,4.17H185.81a2.52,2.52,0,0,1-2.52-2.52Z"/><path class="cls-3" d="M174.66,129.73a2.36,2.36,0,0,0-2.38-2.36c-42.09.47-34.45-2.89-47.93,11.51-7.88,8.41-12.16,13.45-14.48,16.4a2.35,2.35,0,0,0,1.84,3.81h60.6a2.35,2.35,0,0,0,2.35-2.35Z"/><circle class="cls-4" cx="106.19" cy="215.15" r="13.23"/><circle class="cls-4" cx="255.64" cy="215.15" r="13.23"/></svg>