<svg id="Layer_1" data-name="Layer 1" xmlns="http://www.w3.org/2000/svg" viewBox="0 0 359.1 363.05"><defs><style>.cls-1{fill:#eab3d2;}.cls-2{fill:#94d7ec;}.cls-3{fill:#fff;}</style></defs><title>diaper</title><circle class="cls-1" cx="177.02" cy="185.57" r="131.86"/><path class="cls-2" d="M254.06,203.88c-10.54,23.2-22.12,44.72-51.19,52.14H151.22c-24.64-11.25-39.53-23.81-51.19-52.14V153.51a13.21,13.21,0,0,1,13.09-13.34H241a13.21,13.21,0,0,1,13.09,13.34Z"/><path class="cls-3" d="M246.61,201.67c-27.5.79-42.46.65-43.94,46a5.74,5.74,0,0,1-5.66,5.63h0l-39.31,1c-3.54.09-6.53-4.11-6.65-7.46-1.42-40.83-20.44-41.67-44.25-44.66a6.84,6.84,0,0,1-5.92-6.85V151.31A13.11,13.11,0,0,1,113.82,138h126.4a13.11,13.11,0,0,1,12.94,13.27v43.45A6.84,6.84,0,0,1,246.61,201.67Z"/><rect class="cls-2" x="100.39" y="155.9" width="12.96" height="33.46" rx="2.78"/><rect class="cls-2" x="240.19" y="155.9" width="12.96" height="33.46" rx="2.78"/></svg>