<svg id="Layer_1" data-name="Layer 1" xmlns="http://www.w3.org/2000/svg" viewBox="0 0 359.1 363.05"><defs><style>.cls-1{fill:none;stroke:#f27c7b;stroke-miterlimit:10;stroke-width:15px;}.cls-2{fill:#f27c7b;}</style></defs><title>edit</title><circle class="cls-1" cx="179.55" cy="186.06" r="114.22"/><path class="cls-2" d="M219,143.7l-26.32-14.44a6.34,6.34,0,0,0-8.6,2.51l-49.88,90.95a18.55,18.55,0,0,0-1.65,4.09,4,4,0,0,0-.92,2.63l.74,33.83a4,4,0,0,0,6,3.31L167.34,249a3.89,3.89,0,0,0,1.72-2.18,18.27,18.27,0,0,0,2.57-3.59l49.89-90.95A6.33,6.33,0,0,0,219,143.7Z"/><path class="cls-2" d="M223.22,138.94l-28.39-15.57a4.76,4.76,0,0,1-2.14-6.37l5.16-9.39c2.43-4.44,8.3-5.9,13.1-3.27l19.65,10.78c4.8,2.63,6.72,8.37,4.28,12.81l-5.15,9.39A4.75,4.75,0,0,1,223.22,138.94Z"/></svg>