<svg id="Layer_1" data-name="Layer 1" xmlns="http://www.w3.org/2000/svg" viewBox="0 0 359.1 363.05"><defs><style>.cls-1{fill:#f27c7b;}</style></defs><title>filter</title><rect class="cls-1" x="83.99" y="111.6" width="194.36" height="22.94" rx="11.47"/><rect class="cls-1" x="83.99" y="174.6" width="194.36" height="22.94" rx="11.47"/><rect class="cls-1" x="83.99" y="237.59" width="194.36" height="22.94" rx="11.47"/><path class="cls-1" d="M239.46,108V138.2c0,15.42,24,15.44,24,0V108c0-15.42-24-15.45-24,0Z"/><path class="cls-1" d="M133.88,169v30.25c0,15.42,24,15.44,24,0V169c0-15.42-24-15.45-24,0Z"/><path class="cls-1" d="M219.51,235.59v30.25c0,15.42,24,15.44,24,0V235.59c0-15.42-24-15.45-24,0Z"/></svg>