<svg id="Layer_1" data-name="Layer 1" xmlns="http://www.w3.org/2000/svg" viewBox="0 0 359.1 363.05"><defs><style>.cls-1{fill:#4e7d40;}.cls-2{fill:#91c56e;}.cls-3{fill:#f9a75e;}.cls-4{fill:#ae6d35;}</style></defs><title>grabngo</title><path class="cls-1" d="M214.62,117.17h-8.09c0-12.13-9.84-18.47-19.56-18.47a19.37,19.37,0,0,0-13,4.67c-3.67,3.3-5.54,7.94-5.54,13.8H160.3c0-8.59,3-15.79,8.54-20.81A27,27,0,0,1,187,89.7C205.12,89.7,214.62,103.52,214.62,117.17Z"/><path class="cls-1" d="M142.68,125.64c-21.42-3.44-26.95,9.28-35.09,46.55s7.23,80.89,7.23,80.89,3.43,12.29,11.3,16.6a34.43,34.43,0,0,0,16.56,3.8s-16.81-25.29-18.52-45.29-7.69-49.27,6.19-56C145.09,165,142.68,125.64,142.68,125.64Z"/><path class="cls-1" d="M231,125.64c21.42-3.44,26.95,9.28,35.09,46.55s-7.23,80.89-7.23,80.89-3.43,12.29-11.3,16.6a34.43,34.43,0,0,1-16.56,3.8s16.81-25.29,18.52-45.29,7.69-49.27-6.19-56C228.59,165,231,125.64,231,125.64Z"/><path class="cls-2" d="M238.63,293.3H136.3a17,17,0,0,1-17.05-17V176.78a68.21,68.21,0,0,1,68.21-68.21h0a68.21,68.21,0,0,1,68.21,68.21v99.48A17,17,0,0,1,238.63,293.3Z"/><path class="cls-3" d="M220,280.06h-65.1a10.85,10.85,0,0,1-10.84-10.85V205.93a43.39,43.39,0,0,1,43.39-43.39h0a43.39,43.39,0,0,1,43.39,43.39v63.28A10.84,10.84,0,0,1,220,280.06Z"/><path class="cls-4" d="M163.83,202.19h43.95c3.68,0,3.68-5.72,0-5.72H163.83c-3.68,0-3.69,5.72,0,5.72Z"/><path class="cls-1" d="M237.35,159.48l-2.3-9.07a1.48,1.48,0,0,0-1.53-1.11l-1,.06a1.47,1.47,0,0,0-1.37,1.29L230,159.94a1.48,1.48,0,0,0,1.55,1.66l4.45-.28A1.48,1.48,0,0,0,237.35,159.48Zm-3.84.6a1.63,1.63,0,1,1,1.72-1.54A1.62,1.62,0,0,1,233.51,160.08Z"/><path class="cls-4" d="M211.06,209.59l-2-9.14a1.48,1.48,0,0,0-1.49-1.15l-1,0a1.48,1.48,0,0,0-1.41,1.25l-1.44,9.25a1.48,1.48,0,0,0,1.51,1.7l4.45-.14A1.48,1.48,0,0,0,211.06,209.59Zm-3.86.48a1.63,1.63,0,1,1,1.77-1.48A1.62,1.62,0,0,1,207.2,210.07Z"/><path class="cls-1" d="M140.29,152.39c9.94-15.84,32-22.74,49.5-22.88,16.6-.12,35.61,7.48,43.81,22.88.88,1.66,3.4.19,2.52-1.47-8.68-16.29-28.74-24.45-46.33-24.32-18.64.15-41.51,7.58-52,24.32-1,1.59,1.52,3.06,2.51,1.47Z"/></svg>