<svg id="Layer_1" data-name="Layer 1" xmlns="http://www.w3.org/2000/svg" viewBox="0 0 359.1 363.05"><defs><style>.cls-1{fill:#ecb38d;}.cls-2{fill:#94d7ec;}.cls-3{fill:#4673b7;}.cls-4{fill:#fde997;}</style></defs><title>granola</title><circle class="cls-1" cx="174.31" cy="183.96" r="131.21"/><rect class="cls-2" x="84.83" y="150.34" width="178.96" height="66.48" rx="19.99"/><path class="cls-3" d="M273.48,217.51H281a1,1,0,0,0,.46-1.74l-7-9.88a.78.78,0,0,1,0-1.3l8.23-11.14a1,1,0,0,0-.12-1.65l-7.83-7.3a.78.78,0,0,1-.1-1.36l8.13-10.91a1,1,0,0,0-.07-1.62l-6.5-7.94a.8.8,0,0,1-.07-1.34l6.2-9.88a1,1,0,0,0-.49-1.73l-8.42.2H270c-2,0-15.32,1.6-15.31,3.7l0,60c0,2.1,13.32,3.9,15.32,3.9Z"/><path class="cls-3" d="M77,217.52h-7.5a1,1,0,0,1-.46-1.74l7-9.88a.78.78,0,0,0,0-1.3l-8.24-11.14a1,1,0,0,1,.13-1.65l7.83-7.3a.79.79,0,0,0,.1-1.36l-8.13-10.91a1,1,0,0,1,.07-1.63l6.5-7.94a.79.79,0,0,0,.07-1.33l-6.2-9.88a1,1,0,0,1,.49-1.73l8.42.19h3.43c2,0,15.32,1.6,15.31,3.7l0,60c0,2.1-13.32,3.91-15.32,3.9Z"/><path class="cls-3" d="M102.17,166.64c-.13,12.45-2.54,24.43,0,36.81.31,1.49,2.58.86,2.27-.63-2.53-12.16-.08-23.95,0-36.18a1.18,1.18,0,0,0-2.36,0Z"/><path class="cls-3" d="M246,166.83c.12,12.23,2.58,24,0,36.18-.31,1.48,2,2.11,2.28.63,2.58-12.38.17-24.36,0-36.81a1.18,1.18,0,0,0-2.36,0Z"/><circle class="cls-4" cx="174.31" cy="183.58" r="21.46"/></svg>