<svg id="Layer_1" data-name="Layer 1" xmlns="http://www.w3.org/2000/svg" viewBox="0 0 359.1 363.05"><defs><style>.cls-1{fill:#d9c1ac;}.cls-2{fill:#ad4732;}.cls-3{fill:#d2593c;}.cls-4{fill:#9a7c50;}.cls-5{fill:#6e5235;}.cls-6{fill:#25c2e7;}</style></defs><title>home</title><path class="cls-1" d="M165.59,121.47c7.3-7.45,11.95-6.3,18.58.68s59.72,61,59.72,61l13.85,15.13c1.77,1.93,3.78,4.45,3.84,7.09l-.44,64.4s1.33,19.14-18.58,19.81-40.47,0-40.47,0-7.3.67-7.63-10.41-.33-54.39-.33-54.39.79-9.09-8.63-9.4c-11.94-.4-19.91,0-19.91,0s-10.28-1.68-10.62,10.41.39,45.4.06,52.78-2.06,11.47-11.67,11.31c-12.61-.22-35.5,0-35.5,0s-17.25,1-17.59-18.77-.14-67.38-.14-67.38-.51-2.92,5.12-9.17C103.32,185.65,165.59,121.47,165.59,121.47Z"/><path class="cls-2" d="M119.17,100.14c-8.14,0-13.29-1.2-13.29,11.86v35.38s-.74,11.37,7.21,1.26,18.69-23,18.69-23,3.7-3.33,3.7-11.57c0-9.69-.37-13.06-6.66-13.48S119.17,100.14,119.17,100.14Z"/><path class="cls-3" d="M76.13,180.35l91.25-89.92a9.6,9.6,0,0,1,13.44,0l91.42,89.44c2.82,2.75,4.85,7.08,3.27,10.69-.8,1.81-2.84,3.92-4.2,5.63-3.46,4.35-10.36,6.23-14.39,2.4l-77.34-76.5c-4.28-4.76-5.37-5-11.19.65L93.92,197a9.41,9.41,0,0,1-6.71,2.75c-4.24-.06-10.47-1.58-13.36-9.29A9.6,9.6,0,0,1,76.13,180.35Z"/><path class="cls-4" d="M194.24,289.49H156.62a6.22,6.22,0,0,1-6.22-6.22V230.52a21.17,21.17,0,0,1,21.17-21.17h7.72a21.17,21.17,0,0,1,21.17,21.17v52.75A6.22,6.22,0,0,1,194.24,289.49Z"/><circle class="cls-5" cx="190.69" cy="252.93" r="3.51"/><circle class="cls-6" cx="173.63" cy="173.79" r="23.23"/></svg>