<svg id="Layer_1" data-name="Layer 1" xmlns="http://www.w3.org/2000/svg" viewBox="0 0 359.1 363.05"><defs><style>.cls-1{fill:#f3e18e;}.cls-2{fill:#ed2f67;}.cls-3{fill:#fff;}</style></defs><title>medicalkit</title><circle class="cls-1" cx="179.55" cy="187.12" r="127.39"/><rect class="cls-2" x="85.41" y="132.03" width="188.94" height="131.61" rx="47.36"/><path class="cls-2" d="M163.6,119.16a21.48,21.48,0,0,1,13.53-4.35c10.09,0,20.3,5.91,20.3,17.22h8.4c0-12.73-9.86-25.62-28.7-25.62a29.94,29.94,0,0,0-18.81,6.21c-5.8,4.69-8.87,11.4-8.87,19.41h8.4C157.85,126.57,159.79,122.23,163.6,119.16Z"/><circle class="cls-3" cx="179.55" cy="197.11" r="31.99"/><polygon class="cls-2" points="176.41 194.61 176.41 180.88 183.13 180.88 183.13 194.61 196.85 194.61 196.85 201.62 183.42 201.62 183.42 215.34 176.41 215.34 176.41 201.76 162.97 201.87 162.97 194.69 176.41 194.61"/></svg>