<svg id="Layer_1" data-name="Layer 1" xmlns="http://www.w3.org/2000/svg" viewBox="0 0 359.1 363.05"><defs><style>.cls-1{fill:#94d7ec;}.cls-2{fill:#fcbc67;}.cls-3{fill:#f6921e;}.cls-4{fill:#5270b5;}.cls-5{fill:#fff;}</style></defs><title>meds</title><circle class="cls-1" cx="174.85" cy="181.64" r="125.59"/><rect class="cls-2" x="133.22" y="106.85" width="87.43" height="161.41" rx="21.09"/><rect class="cls-3" x="120.14" y="98.87" width="112.83" height="50.68" rx="18.97"/><path class="cls-4" d="M151.37,242.49a10.61,10.61,0,0,0-10.61,10.61v1.79a10.62,10.62,0,0,0,10.61,10.62h18.85v-23Z"/><path class="cls-5" d="M189.07,242.49H170.22v23h18.85a10.63,10.63,0,0,0,10.62-10.62V253.1A10.62,10.62,0,0,0,189.07,242.49Z"/><path class="cls-4" d="M170.82,237.45a10.62,10.62,0,0,0-10.61,10.62v1.79a10.61,10.61,0,0,0,10.61,10.61h18.85v-23Z"/><path class="cls-5" d="M208.52,237.45H189.67v23h18.85a10.62,10.62,0,0,0,10.62-10.61v-1.79A10.63,10.63,0,0,0,208.52,237.45Z"/><path class="cls-4" d="M147.87,222.23a10.61,10.61,0,0,0-10.61,10.61v1.79a10.62,10.62,0,0,0,10.61,10.62h18.85v-23Z"/><path class="cls-5" d="M185.57,222.23H166.72v23h18.85a10.62,10.62,0,0,0,10.62-10.62v-1.79A10.61,10.61,0,0,0,185.57,222.23Z"/><path class="cls-4" d="M211.69,225a10.61,10.61,0,0,1-.89,15l-1.34,1.19a10.63,10.63,0,0,1-15-.89L182,226.16l17.21-15.28Z"/><path class="cls-5" d="M186.66,196.79l12.51,14.09L182,226.16l-12.52-14.09a10.63,10.63,0,0,1,.89-15l1.34-1.18A10.61,10.61,0,0,1,186.66,196.79Z"/></svg>