<svg id="Layer_1" data-name="Layer 1" xmlns="http://www.w3.org/2000/svg" viewBox="0 0 359.1 363.05"><defs><style>.cls-1{fill:#f27a8d;}</style></defs><title>seemore</title><path class="cls-1" d="M158.51,154V93.65a11,11,0,0,1,11-11.05h18.24a11.05,11.05,0,0,1,11.05,11.05V154a11,11,0,0,0,11,11.05H270.2a11,11,0,0,1,11.05,11v20a11.05,11.05,0,0,1-11.05,11H211.64a11.05,11.05,0,0,0-11,11.05v60.31a11.05,11.05,0,0,1-11.05,11.05h-20a11,11,0,0,1-11-11.05V219.11a11,11,0,0,0-11.14-11.05L89,208.53a11,11,0,0,1-11.13-11.05v-21a11,11,0,0,1,11-11.05l58.71-.38A11.06,11.06,0,0,0,158.51,154Z"/></svg>