<svg id="Layer_1" data-name="Layer 1" xmlns="http://www.w3.org/2000/svg" viewBox="0 0 359.1 363.05"><defs><style>.cls-1{fill:#f3e18e;}.cls-2{fill:#474748;}.cls-3{fill:#4673b7;}.cls-4{fill:#333;}.cls-5{fill:#838383;}</style></defs><title>snowbrush</title><circle class="cls-1" cx="177.89" cy="178.76" r="129.03"/><path class="cls-2" d="M271.77,112.33l-44.08,50.19a2.67,2.67,0,0,1-4.24-.31L216.16,151l42.65-48.57,12.1,5.78A2.66,2.66,0,0,1,271.77,112.33Z"/><rect class="cls-3" x="107.06" y="174.93" width="145.65" height="14.99" rx="6.05" transform="translate(-75.89 197.21) rotate(-48.71)"/><rect class="cls-4" x="116.27" y="220.32" width="44.15" height="18.82" rx="6.05" transform="translate(-125.55 182.09) rotate(-48.71)"/><rect class="cls-4" x="198.6" y="112.73" width="68.45" height="18.82" rx="6.05" transform="translate(-12.58 216.49) rotate(-48.71)"/><path class="cls-2" d="M136.63,237.23l-6.82,34.19a4.52,4.52,0,0,1-7.41,2.51l-26.19-23a4.5,4.5,0,0,1,1.53-7.66l33-11.19A4.51,4.51,0,0,1,136.63,237.23Z"/><path class="cls-5" d="M105.83,254.72l12-6.8c.65-.36.07-1.35-.58-1l-12,6.79a.58.58,0,0,0,.58,1Z"/><path class="cls-5" d="M124.21,253.58,119,266.4c-.28.69.83,1,1.1.31l5.19-12.83c.27-.68-.84-1-1.11-.3Z"/><path class="cls-5" d="M119.14,251.61l-7,8.84c-.46.57.35,1.39.81.81l7-8.83c.45-.58-.36-1.39-.82-.82Z"/></svg>