<svg id="Layer_1" data-name="Layer 1" xmlns="http://www.w3.org/2000/svg" viewBox="0 0 359.1 363.05"><defs><style>.cls-1{fill:#f3e18e;}.cls-2{fill:#94d7ec;}.cls-3{fill:#fff;}.cls-4{fill:#25c2e7;}</style></defs><title>water</title><circle class="cls-1" cx="180.84" cy="192.86" r="135.17"/><path class="cls-2" d="M195.28,297.94h-28.5a21.22,21.22,0,0,1-21.22-21.23l2.17-66.94-2.17-53.57c0-11.73,9.5-45.32,21.22-45.32l2.11-5.47h24.33l2.06,5.47c11.72,0,21.23,33.59,21.23,45.32l-2,53.43,2,67.08A21.23,21.23,0,0,1,195.28,297.94Z"/><rect class="cls-3" x="166.06" y="95.06" width="29.95" height="13.86" rx="3.09"/><path class="cls-4" d="M148.35,224c19.18,10,45.07,6.6,64.7.61,1.68-.52,1-3.16-.73-2.64-18.86,5.75-44.09,9.35-62.59-.33-1.56-.82-2.94,1.54-1.38,2.36Z"/><path class="cls-4" d="M148.35,243.79c20.3,8.92,46.12,5.56,66.5-.66,1.68-.52,1-3.16-.73-2.64-19.58,6-45.31,9.32-64.39.94-1.59-.71-3,1.65-1.38,2.36Z"/><path class="cls-4" d="M147,262c20.82,8.87,46.89,5.93,67.81-.45,1.68-.52,1-3.16-.73-2.64-20.12,6.14-46.44,8.93-65.7.72-1.61-.68-3,1.68-1.38,2.37Z"/><path class="cls-4" d="M145.56,156.2s23.42,15.18,70.95,0l-1.25,42.56s-42.44,11.77-68.08-2.51Z"/></svg>