<svg id="Layer_1" data-name="Layer 1" xmlns="http://www.w3.org/2000/svg" viewBox="0 0 359.1 363.05"><defs><style>.cls-1{fill:#eab3d2;}.cls-2{fill:#838383;}.cls-3{fill:#c8c8c8;}</style></defs><title>whistle</title><circle class="cls-1" cx="180.48" cy="190.44" r="130.88"/><path class="cls-2" d="M258.28,181.35a11.64,11.64,0,0,0-8.81,4.05,52.64,52.64,0,0,0-48.68-32.62c-1.63,0-3.23.08-4.81.23H154.52v5.33a2.4,2.4,0,0,1-2.4,2.4h-2.85a2.4,2.4,0,0,1-2.39-2.4V153H98.7a11.42,11.42,0,0,0-11.42,11.42l6.26,23.14a14.5,14.5,0,0,0,12.38,10.61l42.29,4.72q-.06,1.24-.06,2.52a52.64,52.64,0,0,0,105.24,2.05c.05-1.33,0-2.64,0-3.94a11.63,11.63,0,1,0,4.91-22.18Zm0,17.75a6.11,6.11,0,1,1,6.11-6.11A6.12,6.12,0,0,1,258.28,199.1Z"/><circle class="cls-3" cx="202.29" cy="206.93" r="26.23"/></svg>