<svg id="Layer_1" data-name="Layer 1" xmlns="http://www.w3.org/2000/svg" viewBox="0 0 359.1 363.05"><defs><style>.cls-1{fill:#f27c7b;}.cls-2{fill:#fff;}.cls-3{fill:#e93167;}</style></defs><title>alert</title><path class="cls-1" d="M258.7,99.94H100.4a13.6,13.6,0,0,0-13.6,13.6V252.18H87L86.8,290l66.11-37.78H258.7a13.59,13.59,0,0,0,13.59-13.59v-125A13.59,13.59,0,0,0,258.7,99.94Z"/><path class="cls-2" d="M173.08,125.53l-51.22,88.71a8,8,0,0,0,7,12H231.25a8,8,0,0,0,6.95-12L187,125.53A8,8,0,0,0,173.08,125.53Z"/><path class="cls-3" d="M185.13,191.13q-.39,3.81-3.58,3.81h-3q-3.2,0-3.58-3.81l-2.36-24.52c-.15-1.57-.22-2.58-.22-3q0-5.17,7.61-5.18t7.61,5.18c0,1,0,2-.15,3ZM180,211.84a6.86,6.86,0,0,1-5-2.13,7.18,7.18,0,0,1,0-10.21,6.86,6.86,0,0,1,5-2.13,7.24,7.24,0,0,1,0,14.47Z"/></svg>