<svg id="Layer_1" data-name="Layer 1" xmlns="http://www.w3.org/2000/svg" viewBox="0 0 359.1 363.05"><defs><style>.cls-1{fill:#fff;stroke:#fff;stroke-miterlimit:10;}.cls-2{fill:#f3f3f3;}.cls-3{fill:#c6c6c6;}.cls-4{fill:#bfbfbe;}.cls-5{fill:#f9a75e;}.cls-6{fill:#fde997;}</style></defs><title>candles</title><circle class="cls-1" cx="178.2" cy="187.56" r="127.51"/><path class="cls-2" d="M168.29,266.67H145.74a16.94,16.94,0,0,1-16.94-16.94V153.58c0-9.36,5.86-14.79,15.22-14.79l27,.56c9.35,0,14.23,4.87,14.23,14.23v96.15A16.94,16.94,0,0,1,168.29,266.67Z"/><path class="cls-3" d="M184,148.5c0,7.44-11.12,13.48-26.38,13.48S130,155.94,130,148.5,142.32,135,157.59,135,184,141.06,184,148.5Z"/><path class="cls-4" d="M207.49,270.16l-15.06,2.51c-9.36,0-22.89-4.63-22.89-11.71l.17-77.41c0-7.08,14.33-13.82,23.69-13.82l16.8,4c9.35,0,14.23,3.69,14.23,10.78v72.79C224.43,264.42,216.84,270.16,207.49,270.16Z"/><path class="cls-2" d="M210.65,272.67H188.11c-9.36,0-16.94-6-16.94-13.42V183.11c0-7.41,5.86-11.71,15.21-11.71l27,.44c9.36,0,14.23,3.86,14.23,11.27v76.14C227.59,266.66,220,272.67,210.65,272.67Z"/><path class="cls-3" d="M227.45,181.11c0,7.44-11.34,13.47-26.93,13.47s-28.21-6-28.21-13.47,12.63-13.48,28.21-13.48S227.45,173.66,227.45,181.11Z"/><path d="M160.1,148.5V131c0-4-6.28-4-6.28,0V148.5c0,4.05,6.28,4.05,6.28,0Z"/><path d="M203,180.16V162.63c0-4-6.29-4-6.29,0v17.53c0,4.05,6.29,4.06,6.29,0Z"/><path class="cls-5" d="M169.26,125.14c0,9.2-5.49,14.86-12.26,14.86s-12.26-5.66-12.26-14.86c0-8,9.18-22.5,11.65-26.28a.72.72,0,0,1,1.21,0C160.08,102.64,169.26,117.19,169.26,125.14Z"/><path class="cls-6" d="M164.25,131.22c0,5.43-3.25,8.78-7.25,8.78s-7.25-3.35-7.25-8.78c0-4.71,5.42-13.31,6.89-15.55a.43.43,0,0,1,.72,0C158.82,117.91,164.25,126.51,164.25,131.22Z"/><path class="cls-5" d="M188.19,159.61c0,8.26,4.93,13.35,11,13.35s11-5.09,11-13.35c0-9.44-10.26-21.65-13-24.75a.66.66,0,0,0-1.09.16C194.41,138.66,188.19,152.48,188.19,159.61Z"/><path class="cls-6" d="M192.69,165.07c0,4.88,2.92,7.89,6.51,7.89s6.51-3,6.51-7.89c0-4.22-6.06-15.26-7.72-18.2a.29.29,0,0,0-.53.1C196.54,152.78,192.69,160.41,192.69,165.07Z"/></svg>