<svg id="Layer_1" data-name="Layer 1" xmlns="http://www.w3.org/2000/svg" viewBox="0 0 359.1 363.05"><defs><style>.cls-1{fill:#fff;}.cls-2{fill:#91c56e;}.cls-3{fill:#c2dfa9;}.cls-4{fill:#6e9852;}</style></defs><title>charger</title><circle class="cls-1" cx="177.37" cy="185.29" r="124.96"/><rect class="cls-2" x="122.85" y="127.99" width="111.07" height="137.36" rx="22.49"/><rect class="cls-3" x="122.85" y="111.09" width="111.07" height="137.36" rx="22.49"/><rect class="cls-4" x="165.84" y="253.95" width="25.09" height="5.69" rx="2.76"/><path class="cls-1" d="M181.7,142.92,160.31,161.4a1.44,1.44,0,0,0,.33,2.39l21.48,10.06a1.44,1.44,0,0,1,.59,2.1L169,196.56a1.43,1.43,0,0,0,2.15,1.86l28.14-25.17a1.44,1.44,0,0,0-.31-2.35L177.24,160a1.44,1.44,0,0,1-.61-2l7.27-13.3A1.44,1.44,0,0,0,181.7,142.92Z"/><circle class="cls-2" cx="158.72" cy="236.25" r="4.9"/><circle class="cls-2" cx="178.38" cy="236.25" r="4.9"/><circle class="cls-2" cx="198.04" cy="236.25" r="4.9"/></svg>