<svg id="Layer_1" data-name="Layer 1" xmlns="http://www.w3.org/2000/svg" viewBox="0 0 361.43 353.2"><defs><style>.cls-1{fill:#fff;}</style></defs><title>dashKit</title><path class="cls-1" d="M274.5,121.45H234.68c-3.66-20.76-22.69-39.73-56-39.73-14.15,0-27.33,4.06-37.12,11.43a42.39,42.39,0,0,0-16.9,28.3H85A23.51,23.51,0,0,0,61.46,145V248A23.52,23.52,0,0,0,85,271.53H274.5A23.52,23.52,0,0,0,298,248V145A23.51,23.51,0,0,0,274.5,121.45ZM131.2,248.05a6.4,6.4,0,0,1-6.4,6.4H93a6.4,6.4,0,0,1-6.4-6.4V148.6a6.41,6.41,0,0,1,6.4-6.4h31.8a6.41,6.41,0,0,1,6.4,6.4Zm10.26-126.6A27.18,27.18,0,0,1,152,105.17c6.85-5.16,16.34-8,26.71-8,17.4,0,35,8.3,39.14,24.28Zm137.38,126.6a6.4,6.4,0,0,1-6.4,6.4h-31.8a6.4,6.4,0,0,1-6.4-6.4V148.6a6.41,6.41,0,0,1,6.4-6.4h31.8a6.41,6.41,0,0,1,6.4,6.4Z"/></svg>