<svg id="Layer_1" data-name="Layer 1" xmlns="http://www.w3.org/2000/svg" viewBox="0 0 361.43 353.2"><defs><style>.cls-1{fill:none;}.cls-1,.cls-2{stroke:#fff;}.cls-1,.cls-2,.cls-3{stroke-miterlimit:10;stroke-width:5.11px;}.cls-2,.cls-3{fill:#fff;}.cls-3{stroke:#f27c7b;}</style></defs><title>dashBoard</title><path class="cls-1" d="M65.26,244.64H88a6.9,6.9,0,0,0,6.86-6.44,83.43,83.43,0,0,1,34.12-61,6.87,6.87,0,0,0,1.1-10L115.37,150a6.92,6.92,0,0,0-9.41-1.07,119.86,119.86,0,0,0-47.61,88.47A6.91,6.91,0,0,0,65.26,244.64Z"/><path class="cls-2" d="M178,124.76a119.13,119.13,0,0,0-60.93,16.67,5.87,5.87,0,0,0-1.45,8.85L132,169.49a5.81,5.81,0,0,0,7.15,1.4,83.21,83.21,0,0,1,80.76,1.65,5.85,5.85,0,0,0,7.34-1.19l16.55-18.84a5.89,5.89,0,0,0-1.22-8.83A119.11,119.11,0,0,0,178,124.76Z"/><path class="cls-1" d="M243.89,152.37l-15,17a6.86,6.86,0,0,0,.82,9.89,83.28,83.28,0,0,1,31.42,58.89,6.93,6.93,0,0,0,6.87,6.46h22.74a6.9,6.9,0,0,0,6.9-7.27,119.72,119.72,0,0,0-44.23-85.81A6.93,6.93,0,0,0,243.89,152.37Z"/><path class="cls-3" d="M190.71,240.06c-5.91,10.38-17.83,14.74-26.63,9.73s-11.15-17.49-5.25-27.87c5.07-8.9,60.11-78.36,75.73-98a1,1,0,0,1,1.77,1C227.4,148.37,195.78,231.17,190.71,240.06Z"/></svg>