<svg id="Layer_1" data-name="Layer 1" xmlns="http://www.w3.org/2000/svg" viewBox="0 0 361.43 353.2"><defs><style>.cls-1{fill:#fff;}</style></defs><title>dashProfile</title><circle class="cls-1" cx="179.74" cy="156.19" r="38.06"/><path class="cls-1" d="M179.74,73.31A112.85,112.85,0,1,0,292.58,186.15,113,113,0,0,0,179.74,73.31Zm63.69,189.55c.1-1.77.17-3.56.15-5.37-.32-27.57-14.29-51.36-34.55-63.23a7.73,7.73,0,0,0-8.15.28,38.06,38.06,0,0,1-42-.13,7.65,7.65,0,0,0-8.13-.29c-20.75,12-34.82,36.61-34.49,64.82,0,1.42.08,2.83.17,4.24a99.75,99.75,0,1,1,127-.32Z"/></svg>