<svg id="Layer_1" data-name="Layer 1" xmlns="http://www.w3.org/2000/svg" viewBox="0 0 359.1 363.05"><defs><style>.cls-1{fill:#686969;}.cls-2{fill:#d9c1ac;}.cls-3{fill:#ad4732;}.cls-4{fill:#d2593c;}.cls-5{fill:#9a7c50;}.cls-6{fill:#6e5235;}.cls-7{fill:#25c2e7;}</style></defs><title>earthquake</title><polygon class="cls-1" points="126.19 196.74 79.65 243.27 131.3 270.41 99.54 293.65 187.44 319.05 147.82 293.65 171.51 270.41 132.4 240.26 151.63 224.31 126.19 196.74"/><path class="cls-2" d="M181.56,73.65c8.06-6.63,12.55-5,18.4,2.66s52.81,67.11,52.81,67.11L264.91,160c1.55,2.11,3.28,4.83,3.06,7.46l-7.36,64s-.74,19.17-20.61,17.7-40.24-4.36-40.24-4.36-7.32-.11-6.46-11.16,5.51-54.11,5.51-54.11,1.77-9-7.56-10.28c-11.83-1.68-19.79-2.14-19.79-2.14s-10.05-2.77-11.68,9.21-4.49,45.17-5.62,52.48-3.28,11.19-12.81,10c-12.52-1.57-35.3-3.82-35.3-3.82s-17.27-.82-15.47-20.55,7.1-67,7.1-67-.19-3,6.08-8.56C112.74,130.76,181.56,73.65,181.56,73.65Z"/><path class="cls-3" d="M137.69,47.45c-8.09-.87-13.08-2.62-14.48,10.36L119.41,93s-2,11.22,7,2,21.05-20.83,21.05-20.83,4-2.9,4.92-11.1c1-9.63,1-13-5.17-14.12S137.69,47.45,137.69,47.45Z"/><path class="cls-4" d="M86.29,122.56,186.67,43A9.59,9.59,0,0,1,200,44.4l81.27,98.74c2.5,3,4.06,7.57,2.1,11-1,1.72-3.24,3.59-4.78,5.15-3.91,3.95-11,5.08-14.56.84L195.4,75.74c-3.75-5.2-4.8-5.56-11.19-.56l-82,65.88a9.44,9.44,0,0,1-7,2C91,142.56,85,140.38,82.93,132.4A9.57,9.57,0,0,1,86.29,122.56Z"/><path class="cls-5" d="M192,243.77l-37.4-4a6.23,6.23,0,0,1-5.52-6.86l5.68-52.44a21.15,21.15,0,0,1,23.32-18.77l7.68.83a21.17,21.17,0,0,1,18.77,23.32l-5.67,52.44A6.22,6.22,0,0,1,192,243.77Z"/><circle class="cls-6" cx="192.37" cy="207.05" r="3.51"/><circle class="cls-7" cx="183.92" cy="126.53" r="23.23"/></svg>