<svg id="Layer_1" data-name="Layer 1" xmlns="http://www.w3.org/2000/svg" viewBox="0 0 359.1 363.05"><defs><style>.cls-1{fill:#f391a6;}.cls-2{fill:#f27a8d;}.cls-3{fill:#ec5e73;}</style></defs><title>email</title><rect class="cls-1" x="78.05" y="115.1" width="197.55" height="140.95" rx="18.38"/><path class="cls-2" d="M177.64,153.41l85.62,93.67a4.34,4.34,0,0,1-3.2,7.27H88.83a4.34,4.34,0,0,1-3.2-7.27l85.61-93.67A4.34,4.34,0,0,1,177.64,153.41Z"/><path class="cls-3" d="M163.46,207,87,123.36a4.33,4.33,0,0,1,3.2-7.26H261.43a4.34,4.34,0,0,1,3.21,7.26L188.18,207A16.75,16.75,0,0,1,163.46,207Z"/></svg>