<svg id="Layer_1" data-name="Layer 1" xmlns="http://www.w3.org/2000/svg" viewBox="0 0 359.1 363.05"><defs><style>.cls-1{fill:#f27c7b;}</style></defs><title>escape</title><path class="cls-1" d="M286.56,177.44,184,77.06a10.77,10.77,0,0,0-15.09,0L66.46,178a10.74,10.74,0,0,0-2.56,11.38c3.24,8.66,10.23,10.36,15,10.43a10.55,10.55,0,0,0,7.52-3.09l5.6-5.58a2.23,2.23,0,0,0,0,.57s-.18,62.69.15,82.28,17.6,18.56,17.6,18.56,9.92-.21,22.54,0c9.62.17,11.35-3.87,11.68-11.18s-.39-40.26-.06-52.22,10.63-10.29,10.63-10.29,35-.39,46.93,0c9.43.31,8.64,9.3,8.64,9.3s0,42.84.33,53.8,7.64,10.3,7.64,10.3,7.58.66,27.51,0,18.6-19.6,18.6-19.6l-1.56-79.33a11.3,11.3,0,0,0-.2-1.75l6.94,6.86c4.52,4.3,12.26,2.19,16.15-2.7,1.53-1.92,3.81-4.28,4.71-6.32C292,185.38,289.72,180.53,286.56,177.44Z"/><polygon class="cls-1" points="148.63 271.29 184.68 271.29 184.68 285.61 207.45 263.16 184.68 240.72 184.68 255.04 148.63 255.04 148.63 271.29"/></svg>