<svg id="Layer_1" data-name="Layer 1" xmlns="http://www.w3.org/2000/svg" viewBox="0 0 359.1 363.05"><defs><style>.cls-1{fill:#ec8663;}.cls-2{fill:#f9a75e;}.cls-3{fill:#fde997;}</style></defs><title>fire</title><path class="cls-1" d="M216.72,283.48c90.42-12.24,60.7-108.59,93.86-135.35,0,0-50.75,8.73-60.68,30.49,0,0,13.57-61.06-78.41-130.27,0,0-55.9,61.22-53.53,125.86,0,0-10.77-24.52-49.76-48.94,0,0-21.37,132.33,47.23,153.78C157.39,292.17,216.72,283.48,216.72,283.48Z"/><path class="cls-2" d="M128.53,271.49C59.82,246.72,97.21,168.93,75.29,140.77c0,0,38.86,23.56,43.39,43.76,0,0-.4-55.26,81.53-100,0,0,32.83,54,21.45,109,0,0,12-19.3,46-34,0,0-2.84,116.68-59.51,124.2C173.52,288.31,128.53,271.49,128.53,271.49Z"/><path class="cls-3" d="M165.33,277.55S103,250.88,99.62,218.63c0,0,14.61,7.66,25.1,4.09s-5.27-32.57,10.87-46.46c0,0,15.47,10.45,21.66,33.26s29.13-8.47,34-22.21c0,0-11.63,43,8.72,39.73S232.11,192,232.11,192s-10.58,84.09-37.92,87.73-20.47,3.56-20.47,3.56Z"/></svg>