<svg id="Layer_1" data-name="Layer 1" xmlns="http://www.w3.org/2000/svg" viewBox="0 0 359.1 363.05"><defs><style>.cls-1{fill:#fff;}.cls-2{fill:#474748;}.cls-3{fill:#f27c7a;}</style></defs><title>fireextinguisher</title><circle class="cls-1" cx="182.11" cy="181.52" r="128.29"/><path class="cls-2" d="M253.69,118.78l-28.05,1.11a6.69,6.69,0,0,0-3.55-6.58L219.5,112c.15-.24.31-.48.44-.74a13.35,13.35,0,1,0-24.66-2.64l-1-.35a32.56,32.56,0,0,0-18.75-.6c-7.85,2.31-13.57,8.25-17.66,15.11-2.65,4.44,4.46,8.16,7.1,3.73,3.24-5.45,7.85-10.14,14.24-11.52,4.9-1.06,10.12-.1,14.77,1.58A54,54,0,0,1,205,122.08L199,133.63a6.68,6.68,0,0,0,2.8,9l3.85,2a6.69,6.69,0,0,0,9-2.81l6.55-12.45,14.69,23.26a5.17,5.17,0,0,0,8.94-.36l13.65-26A5.17,5.17,0,0,0,253.69,118.78ZM211.35,98.87a6.93,6.93,0,1,1-9.36,2.91A6.94,6.94,0,0,1,211.35,98.87Z"/><path class="cls-3" d="M154.49,271.53,127,257.07a17.54,17.54,0,0,1-7.36-23.69l47-89.4a29.08,29.08,0,0,1,39.28-12.21l7.06,3.71a29.09,29.09,0,0,1,12.22,39.28l-47,89.4A17.55,17.55,0,0,1,154.49,271.53Z"/></svg>