<svg id="Layer_1" data-name="Layer 1" xmlns="http://www.w3.org/2000/svg" viewBox="0 0 359.1 363.05"><defs><style>.cls-1{fill:#94d7ec;}.cls-2{fill:#4673b7;}</style></defs><title>flood</title><path class="cls-1" d="M55.75,231a2.26,2.26,0,0,1-1.5-4c32.38-25.61,49.66-113,81.1-114.18,33.69-1.22,38.17,11.41,40.51,13.78s-26.94-10.28-28.44,16.61c-1.19,21.3,10.81,27,15.86,28.44a2.24,2.24,0,0,0,2.76-1.47c2.57-7.93,13.38-37.3,31-32.5l20.27,5.53s-26.28-7.12-18,8.7c5.42,10.37,13.18,24.1,17.89,32.32a2.26,2.26,0,0,0,4.22-1c.59-16.63,3.81-53.06,20.56-55.29,8.66-1.15,21.87,3.63,20,4.64-6.77,3.77-16.81,12.05-6.73,24.81,17,21.54,7,36.08,63.25,55.65a2.27,2.27,0,0,1-.63,4.4Z"/><path class="cls-2" d="M66.53,229.7a1.44,1.44,0,0,1-.87-2.63c28.56-19.92,43.47-93.18,70.87-94.12,29-1,32.87,9.33,34.89,11.27s-23.2-8.41-24.49,13.58c-1.07,18.2,10.26,22.47,14.2,23.4a1.44,1.44,0,0,0,1.7-.94c1.94-5.81,11.32-31,26.78-27l17.46,4.53s-22.63-5.82-15.52,7.11c5,9.16,12.44,21.52,16.33,28a1.43,1.43,0,0,0,2.66-.7c.34-12.63,2.71-45,17.75-46.89a49.85,49.85,0,0,1,17.91.65c1.3.32-15.58,12.43-6.43,23.44,14.86,17.85,5.82,29.84,56.54,46.19a1.44,1.44,0,0,1-.36,2.8Z"/></svg>