<svg id="Layer_1" data-name="Layer 1" xmlns="http://www.w3.org/2000/svg" viewBox="0 0 359.1 363.05"><defs><style>.cls-1{fill:#f27c7a;}</style></defs><title>help</title><path class="cls-1" d="M179.55,294.61A112.27,112.27,0,1,1,291.82,182.34,112.39,112.39,0,0,1,179.55,294.61Zm0-207.2a94.94,94.94,0,1,0,94.93,94.93A95,95,0,0,0,179.55,87.41Z"/><path class="cls-1" d="M208.24,155.89c0-12.8-9.61-22.75-27.82-22.75-11.28,0-21,4-29.36,10.54a5.73,5.73,0,0,1-7.24-.24l-3.66-3.15a5.76,5.76,0,0,1,.08-8.83,65,65,0,0,1,41.44-14.66c28.07,0,47,14.45,47,37,0,30.21-40.24,37.92-41.71,64a5.78,5.78,0,0,1-5.76,5.45H174a5.81,5.81,0,0,1-5.79-5.78C168,188.35,208.24,178.61,208.24,155.89Z"/><path class="cls-1" d="M164.3,247.49c0-9.18,6.51-14.74,14.17-14.74s14.16,5.56,14.16,14.74-6.5,14.93-14.16,14.93S164.3,256.68,164.3,247.49Z"/></svg>