<?xml version="1.0" encoding="utf-8"?>
<!-- Generator: Adobe Illustrator 23.0.3, SVG Export Plug-In . SVG Version: 6.00 Build 0)  -->
<svg version="1.1" id="Layer_1" xmlns="http://www.w3.org/2000/svg" xmlns:xlink="http://www.w3.org/1999/xlink" x="0px" y="0px"
	 viewBox="0 0 359.1 363" style="enable-background:new 0 0 359.1 363;" xml:space="preserve">
<style type="text/css">
	.st0{fill:#F27C7A;}
</style>
<title>help</title>
<path class="st0" d="M179.6,294.6c-62,0-112.3-50.3-112.3-112.3c0-62,50.3-112.3,112.3-112.3c62,0,112.3,50.3,112.3,112.3
	C291.8,244.3,241.5,294.5,179.6,294.6z M179.6,87.4c-52.4,0-94.9,42.5-94.9,94.9c0,52.4,42.5,94.9,94.9,95
	c52.4,0,94.9-42.5,94.9-94.9c0,0,0,0,0,0C274.4,129.9,232,87.4,179.6,87.4L179.6,87.4z"/>
<path class="st0" d="M185.1,250h-11c-5,0-9-4-9-9v-76c0-5,4-9,9-9h11c5,0,9,4,9,9v76C194.1,246,190,250,185.1,250z"/>
<circle class="st0" cx="179.6" cy="131" r="15.4"/>
</svg>
