<svg id="Layer_1" data-name="Layer 1" xmlns="http://www.w3.org/2000/svg" viewBox="0 0 359.1 363.05"><defs><style>.cls-1{fill:#fff;stroke:#fff;stroke-miterlimit:10;}.cls-2{fill:#ffcd71;}.cls-3{fill:#f89e1c;}</style></defs><title>key</title><circle class="cls-1" cx="179.55" cy="183.1" r="124.08"/><path class="cls-2" d="M209.52,229.57l-14-11.26a3.19,3.19,0,0,0-.38-.26V193a9.81,9.81,0,0,0-9.81-9.81h-10a9.81,9.81,0,0,0-9.82,9.81V279.6a9.82,9.82,0,0,0,9.82,9.82,19.86,19.86,0,0,0,19.85-19.86v-3.1l8.39-7.21a4.47,4.47,0,0,0-.11-6.87l-6.92-5.59,13.07-11.23A3.9,3.9,0,0,0,209.52,229.57Z"/><path class="cls-2" d="M179.55,93.34a48.56,48.56,0,1,0,48.55,48.55A48.56,48.56,0,0,0,179.55,93.34ZM180,144a15.24,15.24,0,1,1,15.24-15.24A15.24,15.24,0,0,1,180,144Z"/><rect class="cls-3" x="172.78" y="204.55" width="4.09" height="66.08"/></svg>