<svg xmlns="http://www.w3.org/2000/svg" viewBox="0 0 143.59 144.85"><defs><style>.cls-1{fill:#f04d53;}.cls-2{fill:#fff;}</style></defs><title>Artboard 9</title><g id="Page_1" data-name="Page 1"><g id="emUrgency_Logo" data-name="emUrgency Logo"><rect class="cls-1" x="16.66" y="17.14" width="110.27" height="110.57" rx="23.14"/><path class="cls-2" d="M97,32.81H95.7V31a2.36,2.36,0,0,0-2.36-2.35H90.87A2.35,2.35,0,0,0,88.52,31v1.8H55.16V30.89a2.36,2.36,0,0,0-2.35-2.36H50.34A2.36,2.36,0,0,0,48,30.89v1.92H46.46a7,7,0,0,0-7,6.94V60H104V39.75A6.94,6.94,0,0,0,97,32.81Z"/><polygon class="cls-2" points="108.85 79.79 34.62 79.79 39.51 63.36 103.96 63.36 108.85 79.79"/><path class="cls-2" d="M100,83.52v1.26a2.37,2.37,0,0,1-2.37,2.37H95.74v2.29a2.37,2.37,0,0,1-2.37,2.37H91.05a2.37,2.37,0,0,1-2.36-2.37V87.15h-2a2.37,2.37,0,0,1-2.37-2.37V83.52H59.43v1.26a2.37,2.37,0,0,1-2.37,2.37H55.21v2.29a2.37,2.37,0,0,1-2.37,2.37H50.52a2.37,2.37,0,0,1-2.37-2.37V87.15h-2a2.37,2.37,0,0,1-2.37-2.37V83.52H34.62V105a6.46,6.46,0,0,0,6.46,6.46h61.31a6.46,6.46,0,0,0,6.46-6.46V83.52Z"/></g></g></svg>