<svg id="Layer_1" data-name="Layer 1" xmlns="http://www.w3.org/2000/svg" viewBox="0 0 359.1 363.05"><defs><style>.cls-1,.cls-3{fill:#fff;}.cls-1{stroke:#fff;stroke-miterlimit:10;}.cls-2{fill:#ed2f67;}</style></defs><title>medicalkit</title><circle class="cls-1" cx="180.63" cy="185.04" r="129.47"/><rect class="cls-2" x="84.95" y="129.04" width="192.04" height="133.76" rx="48.14"/><path class="cls-2" d="M164.42,116a21.88,21.88,0,0,1,13.76-4.42c10.25,0,20.63,6,20.63,17.5h8.54c0-12.94-10-26-29.17-26a30.36,30.36,0,0,0-19.12,6.32c-5.89,4.76-9,11.58-9,19.72h8.54C158.59,123.49,160.55,119.08,164.42,116Z"/><circle class="cls-3" cx="180.63" cy="195.19" r="32.51"/><polygon class="cls-2" points="177.44 192.64 177.44 178.69 184.27 178.69 184.27 192.64 198.22 192.64 198.22 199.77 184.57 199.77 184.57 213.72 177.44 213.72 177.44 199.91 163.79 200.02 163.79 192.73 177.44 192.64"/></svg>