<svg id="Layer_1" data-name="Layer 1" xmlns="http://www.w3.org/2000/svg" viewBox="0 0 359.1 363.05"><defs><style>.cls-1,.cls-6{fill:#fff;}.cls-1{stroke:#fff;stroke-miterlimit:10;}.cls-2{fill:#ae9374;}.cls-3{fill:#d0d2d3;}.cls-4{fill:#85643f;}.cls-5{fill:#797c7d;}.cls-7{fill:#e8afc4;}</style></defs><title>pet</title><circle class="cls-1" cx="178.81" cy="179.34" r="124.18"/><path class="cls-2" d="M108,188.88a72,72,0,0,0,72,72v-144A72,72,0,0,0,108,188.88Z"/><path class="cls-3" d="M246.73,152.69,254.59,118a5.23,5.23,0,0,0-6.65-6.15l-34,10.55a5.16,5.16,0,0,0-2.54,1.74,71.66,71.66,0,0,0-31.46-7.23v144a72,72,0,0,0,64.12-104.71A5.17,5.17,0,0,0,246.73,152.69Z"/><path class="cls-4" d="M127.31,182.86c-8,31.22-22.35,46.38-33.91,40.84s-10.67-31.42,2-57.81,32.27-43.29,43.83-37.76S134.54,154.5,127.31,182.86Z"/><circle cx="157.78" cy="182.86" r="11.44"/><circle cx="204.5" cy="182.86" r="11.44"/><path class="cls-5" d="M212.63,209.36c11.58-3.07,25.93-3.3,36,3.88,1.48,1.06,2.89-1.39,1.42-2.43-10.68-7.62-25.91-7.42-38.18-4.17a1.41,1.41,0,0,0,.75,2.72Z"/><path class="cls-5" d="M209.49,220c11.91-1,26.19,1.2,34.82,10,1.28,1.31,3.27-.69,2-2-9.16-9.37-24.17-11.92-36.82-10.87-1.8.15-1.81,3,0,2.83Z"/><path class="cls-5" d="M208.4,227.67c11.52,3.28,24,10.45,29,21.78.72,1.66,3.15.23,2.43-1.42-5.24-12-18.5-19.61-30.67-23.08a1.41,1.41,0,0,0-.75,2.72Z"/><path class="cls-6" d="M182.34,116.89l4.94.37,4.94.68s-4.54,27.05-3.91,31.19-.58,8.42-2.32,6.42-1.75-2.84-2.39-9.27S182.34,116.89,182.34,116.89Z"/><path class="cls-6" d="M198.24,119.24l4.76,1.27,4.31,1.43s-8,22.58-8,26.25-1.83,7.19-3.25,5.22-1.31-2.7-1-8.35S198.24,119.24,198.24,119.24Z"/><path d="M169.42,211.34c0,3.82,4.7,6.92,10.52,7V204.37C174.12,204.42,169.42,207.52,169.42,211.34Z"/><path class="cls-7" d="M180.09,204.37h-.15v13.95h.15c5.89,0,10.66-3.12,10.66-7S186,204.37,180.09,204.37Z"/><circle cx="150.44" cy="215.11" r="1.02"/><circle cx="160.41" cy="210.83" r="1.02"/><circle cx="160.78" cy="220.81" r="1.02"/><circle cx="157.78" cy="226.51" r="1.02"/><circle cx="169.22" cy="225.48" r="1.02"/><path class="cls-7" d="M238.48,143.28l-10.93-11.54a1.94,1.94,0,0,1,1-3.22L244,124.83a1.94,1.94,0,0,1,2.32,2.44l-4.53,15.23A1.94,1.94,0,0,1,238.48,143.28Z"/></svg>