<svg id="Layer_1" data-name="Layer 1" xmlns="http://www.w3.org/2000/svg" viewBox="0 0 359.1 363.05"><defs><style>.cls-1{fill:#fff;stroke:#fff;stroke-miterlimit:10;}.cls-2{fill:#9d9d9d;}.cls-3{fill:#91c56e;}.cls-4{fill:#9e9d9e;}.cls-5{fill:#d0d2d3;}.cls-6{fill:#b7b7b7;}.cls-7{fill:#262422;}.cls-8{fill:#4c4b4a;}</style></defs><title>petfood</title><circle class="cls-1" cx="183.95" cy="188.3" r="132.69"/><path class="cls-2" d="M236,249.35c0,12-21.45,21.66-50.9,21.66s-53.32-9.7-53.32-21.66,23.87-21.66,53.32-21.66S236,237.39,236,249.35Z"/><path class="cls-3" d="M236,135.06c0-10.76-9-16.37-26.29-16.37l-49.82-.64c-17.29,0-28.11,6.25-28.11,17v110.6a12.91,12.91,0,0,0,.28,2.48c.07,2.85,1.73,5.56,4.67,8,4.34,4.21,11.2,7.31,19.26,8.48a123.68,123.68,0,0,0,29.11,3.27c13.05,0,24.52-1.78,33.23-4.72a36.45,36.45,0,0,0,7.42-3.13c6.25-3.31,9.88-7.44,10-11.92a12.72,12.72,0,0,0,.28-2.47Z"/><path class="cls-4" d="M236.31,134.44a12.2,12.2,0,0,1-2.4,7,25.35,25.35,0,0,1-5.28,5.42,46.1,46.1,0,0,1-13.5,7.07,109.26,109.26,0,0,1-30,3.65,112.52,112.52,0,0,1-29.94-4,55.94,55.94,0,0,1-14.12-6,24.81,24.81,0,0,1-6.1-5.16,11.56,11.56,0,0,1,0-15.8,24.81,24.81,0,0,1,6.1-5.16,56.31,56.31,0,0,1,14.12-6,112.11,112.11,0,0,1,29.94-4,108,108,0,0,1,30,3.66,46.83,46.83,0,0,1,13.5,7.07,25.54,25.54,0,0,1,5.29,5.4A12.2,12.2,0,0,1,236.31,134.44Zm0,0a10.76,10.76,0,0,0-2.67-6.76,20,20,0,0,0-5.75-4.51,55.89,55.89,0,0,0-13.75-4.76,104.47,104.47,0,0,0-29-3.53,108.56,108.56,0,0,0-29,3.89A52.62,52.62,0,0,0,143,124.38a21.55,21.55,0,0,0-5.25,4.41,8.06,8.06,0,0,0,0,11.3A21.55,21.55,0,0,0,143,144.5a52.64,52.64,0,0,0,13.22,5.62,109,109,0,0,0,29,3.88,104.11,104.11,0,0,0,29-3.54,57.26,57.26,0,0,0,13.74-4.77,19.75,19.75,0,0,0,5.75-4.49A10.69,10.69,0,0,0,236.31,134.44Z"/><path class="cls-5" d="M233.51,134.06c0,10.85-20.55,19.65-48.78,19.65s-51.11-8.8-51.11-19.65,22.88-19.65,51.11-19.65S233.51,123.21,233.51,134.06Z"/><path class="cls-6" d="M184.27,146.87c-17.88,0-31.89-5.63-31.89-12.81s14-12.82,31.89-12.82c17.38,0,30.49,5.51,30.49,12.82S201.65,146.87,184.27,146.87Zm0-23.83c-16.31,0-30.09,5-30.09,11s13.78,11,30.09,11c18,0,28.69-5.6,28.69-11S202.23,123,184.27,123Z"/><path class="cls-7" d="M202.62,222.16c2.65,7.91-8.87,15.11-19.82,15.11S160.41,230.1,163,222.16c3.89-12,8.87-20,19.81-20S199.3,212.26,202.62,222.16Z"/><path class="cls-8" d="M182.8,238.92c-8,0-16.09-3.53-19.77-8.59a9.4,9.4,0,0,1-1.61-8.68c3.56-11,8.62-21.16,21.38-21.16,9.62,0,16.61,6.91,21.38,21.14h0a9.33,9.33,0,0,1-1.53,8.64C199,235.36,190.82,238.92,182.8,238.92Zm0-35.14c-10.06,0-14.57,7.55-18.25,18.89a6.16,6.16,0,0,0,1.15,5.72c3.05,4.19,10.24,7.23,17.1,7.23s14.13-3.06,17.17-7.28a6,6,0,0,0,1.08-5.66h0C196.73,209.79,190.93,203.78,182.8,203.78Z"/><ellipse class="cls-7" cx="209.06" cy="200.69" rx="9.29" ry="6.82" transform="translate(-46.56 337.21) rotate(-71.94)"/><path class="cls-8" d="M207.79,211.43a6.67,6.67,0,0,1-2.12-.34,7.63,7.63,0,0,1-4.8-5.13,13.45,13.45,0,0,1,4.68-14.35,7.27,7.27,0,0,1,11.7,3.81,13.41,13.41,0,0,1-4.68,14.35A8.17,8.17,0,0,1,207.79,211.43Zm2.56-18.17a5,5,0,0,0-2.87,1A10.16,10.16,0,0,0,204,204.92a4.4,4.4,0,0,0,2.68,3,4.45,4.45,0,0,0,4-.86,9.49,9.49,0,0,0,3.33-4.8h0a9.49,9.49,0,0,0,.14-5.83,4.41,4.41,0,0,0-2.69-3A3.3,3.3,0,0,0,210.35,193.26Z"/><ellipse class="cls-7" cx="192.98" cy="189.59" rx="6.82" ry="9.29"/><path class="cls-8" d="M193,200.53c-4.67,0-8.47-4.91-8.47-10.94s3.8-10.94,8.47-10.94,8.47,4.91,8.47,10.94S197.65,200.53,193,200.53ZM193,182c-2.8,0-5.17,3.5-5.17,7.64s2.37,7.64,5.17,7.64,5.18-3.5,5.18-7.64S195.79,182,193,182Z"/><ellipse class="cls-7" cx="175.34" cy="188.26" rx="6.82" ry="9.29"/><path class="cls-8" d="M175.34,199.2c-4.67,0-8.47-4.91-8.47-10.94s3.8-10.94,8.47-10.94,8.47,4.9,8.47,10.94S180,199.2,175.34,199.2Zm0-18.59c-2.8,0-5.17,3.5-5.17,7.65s2.37,7.64,5.17,7.64,5.17-3.5,5.17-7.64S178.15,180.61,175.34,180.61Z"/><ellipse class="cls-7" cx="159.1" cy="198.49" rx="6.82" ry="9.29" transform="translate(-54.27 59.98) rotate(-18.3)"/><path class="cls-8" d="M160.39,209.22a8.24,8.24,0,0,1-4.76-1.63,13.45,13.45,0,0,1-4.74-14.33,7.64,7.64,0,0,1,4.78-5.16c4.43-1.47,9.58,2,11.47,7.73h0c1.9,5.73-.17,11.58-4.6,13A6.86,6.86,0,0,1,160.39,209.22Zm-2.6-18.16a3.41,3.41,0,0,0-1.09.18,4.42,4.42,0,0,0-2.67,3,10.16,10.16,0,0,0,3.51,10.62,4.44,4.44,0,0,0,4,.85c2.66-.88,3.81-4.95,2.51-8.88C162.88,193.46,160.21,191.06,157.79,191.06Z"/></svg>