<svg id="Layer_1" data-name="Layer 1" xmlns="http://www.w3.org/2000/svg" viewBox="0 0 359.1 363.05"><defs><style>.cls-1{fill:#f27c7b;}</style></defs><title>profile</title><circle class="cls-1" cx="176.08" cy="159.48" r="35.47"/><path class="cls-1" d="M176.08,82.24A105.17,105.17,0,1,0,281.25,187.4,105.28,105.28,0,0,0,176.08,82.24ZM235.44,258.9c.1-1.66.16-3.32.14-5-.3-25.7-13.32-47.87-32.2-58.93a7.19,7.19,0,0,0-7.59.26,35.51,35.51,0,0,1-39.15-.12,7.13,7.13,0,0,0-7.58-.27c-19.34,11.23-32.45,34.12-32.15,60.41,0,1.33.08,2.64.16,3.95a93,93,0,1,1,118.37-.29Z"/></svg>