<svg id="Layer_1" data-name="Layer 1" xmlns="http://www.w3.org/2000/svg" viewBox="0 0 359.1 363.05"><defs><style>.cls-1,.cls-5{fill:#fff;}.cls-1{stroke:#fff;stroke-miterlimit:10;}.cls-2{fill:#f6921e;}.cls-3{fill:#faaf40;}.cls-4{fill:#231f20;}</style></defs><title>radio</title><circle class="cls-1" cx="179.55" cy="187.12" r="127.9"/><rect class="cls-2" x="105.9" y="158.52" width="29.14" height="17.61" rx="5.15"/><rect class="cls-3" x="103.22" y="158.64" width="21.68" height="50.91" rx="6.34"/><rect class="cls-4" x="221.29" y="145.93" width="3.04" height="49.89"/><rect class="cls-2" x="93" y="191.3" width="150.1" height="74.83" rx="24.63"/><rect class="cls-5" x="125.48" y="209.79" width="42.57" height="18.92" rx="2.06"/><circle class="cls-5" cx="204.64" cy="228.18" r="18.17"/><circle class="cls-5" cx="133.42" cy="246.05" r="5.73"/><circle class="cls-5" cx="158.53" cy="246.05" r="5.73"/><circle class="cls-2" cx="222.81" cy="145.93" r="5.73"/><path class="cls-4" d="M209,153.76c-3.53-2.92-3.69-11.25-.34-17.84l2.38,1.21c-2.94,5.79-2.59,12.71-.34,14.57Z"/><path class="cls-4" d="M199.82,161.25c-13.76-15.27-.27-36.66-.13-36.87l2.24,1.44c-.12.2-12.51,19.9-.13,33.64Z"/><path class="cls-4" d="M193,172.37c-9.06-9-13.55-18.76-13.36-29.09.33-17.46,13.84-30.06,14.41-30.59l1.81,2c-.13.13-13.25,12.4-13.55,28.71-.17,9.56,4.06,18.68,12.57,27.11Z"/><path class="cls-4" d="M236.21,154,234.5,152c2.26-1.86,2.61-8.77-.34-14.56l2.39-1.21C239.89,142.79,239.73,151.13,236.21,154Z"/><path class="cls-4" d="M245.42,161.53l-2-1.79c12.4-13.76,0-33.44-.14-33.64l2.25-1.44C245.69,124.87,259.18,146.27,245.42,161.53Z"/><path class="cls-4" d="M252.27,172.65l-1.88-1.9c8.51-8.43,12.74-17.55,12.56-27.11-.29-16.31-13.41-28.58-13.54-28.7l1.8-2c.58.53,14.09,13.13,14.41,30.59C265.82,153.89,261.32,163.68,252.27,172.65Z"/></svg>