<svg id="Layer_1" data-name="Layer 1" xmlns="http://www.w3.org/2000/svg" viewBox="0 0 359.1 363.05"><defs><style>.cls-1{fill:#fff;}.cls-2{fill:#9fdeed;}.cls-3{fill:#8accd6;}.cls-4{fill:#686969;}.cls-4,.cls-5,.cls-6{fill-rule:evenodd;}.cls-5{fill:#595a5a;}.cls-6{fill:#d2593c;}</style></defs><title>roadmap</title><circle class="cls-1" cx="178.72" cy="185.5" r="124.61"/><polygon class="cls-2" points="155.72 242.16 106.69 252.54 106.69 137.33 155.72 126.95 155.72 242.16"/><polygon class="cls-3" points="204.76 252.54 155.72 242.16 155.72 126.95 204.76 137.33 204.76 252.54"/><polygon class="cls-2" points="253.79 242.16 204.76 252.54 204.76 137.33 253.79 126.95 253.79 242.16"/><path class="cls-4" d="M138,184.05l2.75,5.59a39,39,0,0,1,8.77-3.35l-.72-6.3A46.47,46.47,0,0,0,138,184.05Z"/><path class="cls-4" d="M121.66,195.42l4.08,4.71a93,93,0,0,1,8.17-6.37l-3.53-5.13A97.8,97.8,0,0,0,121.66,195.42Z"/><path class="cls-4" d="M107.83,209.36l4.72,4.06c2.28-2.65,4.67-5.22,7.15-7.68l-4.39-4.42Q111.41,205.19,107.83,209.36Z"/><path class="cls-5" d="M187.54,204.35,183.35,209a36.22,36.22,0,0,0,4.54,4,28.64,28.64,0,0,0,5.24,3.07l2.43-5.81A25.21,25.21,0,0,1,187.54,204.35Z"/><path class="cls-5" d="M175.52,189.17l-4.25,4.62c1,1.19,2,2.43,2.94,3.68l3.19,4.29,5-3.72-3.24-4.36C178,192.14,176.8,190.62,175.52,189.17Z"/><path class="cls-5" d="M158,179.29l-1,6.38a18,18,0,0,1,8.76,3.13l3-5.7A22.69,22.69,0,0,0,158,179.29Z"/><path class="cls-4" d="M238.63,200.82l2.92,5.5a45,45,0,0,1,9-4l-1.61-6A49.46,49.46,0,0,0,238.63,200.82Z"/><path class="cls-4" d="M221.42,208.89l2,5.9a82.42,82.42,0,0,0,10.46-4.42l-2.78-5.58A74.73,74.73,0,0,1,221.42,208.89Z"/><path class="cls-4" d="M203.43,212l-.78,6.23a58.76,58.76,0,0,0,6.08-.26c1,0,2-.22,3-.36s1.92-.27,2.88-.45L213.49,211c-.85.16-1.74.26-2.56.39s-1.65.29-2.49.32A49.29,49.29,0,0,1,203.43,212Z"/><path class="cls-6" d="M208.65,127.66a25.25,25.25,0,0,0-25.26,25.25c0,11.07,15.9,36.81,22.47,47a3.33,3.33,0,0,0,5.58,0c6.57-10.17,22.47-35.91,22.47-47A25.25,25.25,0,0,0,208.65,127.66Zm0,36.57a10.66,10.66,0,1,1,10.66-10.66A10.66,10.66,0,0,1,208.65,164.23Z"/></svg>