<svg id="Layer_1" data-name="Layer 1" xmlns="http://www.w3.org/2000/svg" viewBox="0 0 359.1 363.05"><defs><style>.cls-1{fill:#f27c7b;}</style></defs><title>settings</title><path class="cls-1" d="M261.89,205.66h0a15,15,0,0,1,0-24.81h0C274.25,172.38,268,153,253,153.42h0a15,15,0,0,1-14.58-20.07h0c5-14.12-11.45-26.1-23.33-16.95a15,15,0,0,1-23.6-7.67h0c-4.23-14.38-24.6-14.38-28.84,0h0A15,15,0,0,1,139,116.4h0c-11.88-9.15-28.36,2.83-23.34,16.95h0a15,15,0,0,1-14.58,20.07h0c-15-.41-21.28,19-8.91,27.43h0a15,15,0,0,1,0,24.81h0c-12.37,8.47-6.08,27.85,8.91,27.43h0a15,15,0,0,1,14.58,20.07h0c-5,14.13,11.46,26.1,23.34,17h0a15,15,0,0,1,23.59,7.67h0c4.24,14.38,24.61,14.38,28.84,0h0a15,15,0,0,1,23.6-7.67c11.88,9.15,28.36-2.82,23.33-17h0A15,15,0,0,1,253,233.09h0C268,233.51,274.25,214.13,261.89,205.66ZM176.74,241a46.07,46.07,0,1,1,46.07-46.07A46.07,46.07,0,0,1,176.74,241Z"/></svg>