<svg id="Layer_1" data-name="Layer 1" xmlns="http://www.w3.org/2000/svg" viewBox="0 0 359.1 363.05"><defs><style>.cls-1{fill:#fff;stroke:#fff;stroke-miterlimit:10;}.cls-2{fill:#ae906d;}.cls-3{fill:#8e8d8c;}.cls-4{fill:#353535;}.cls-5{fill:#727373;}</style></defs><title>shovel</title><circle class="cls-1" cx="179.61" cy="185.62" r="131.64"/><rect class="cls-2" x="129.54" y="163.61" width="130.11" height="13.39" rx="4.97" transform="translate(-63.83 179.81) rotate(-43.3)"/><path class="cls-3" d="M147.45,182.87,179.3,217.1a7.78,7.78,0,0,1-.4,11l-33.27,31a31.16,31.16,0,0,1-44-1.59h0a31.15,31.15,0,0,1,1.58-44l33.27-31A7.8,7.8,0,0,1,147.45,182.87Z"/><path class="cls-4" d="M262.6,123.42l-18.66-18a5.55,5.55,0,0,0-7.85.14l-3,3.06a11.38,11.38,0,0,0,.27,16.09l10.28,9.93a11.38,11.38,0,0,0,16.09-.28l3-3.06A5.56,5.56,0,0,0,262.6,123.42Zm-18.23,3.75-3.55-3.44a7.06,7.06,0,0,1-.17-10,2.47,2.47,0,0,1,3.49-.06l10.15,9.81a2.48,2.48,0,0,1,.06,3.5A7.06,7.06,0,0,1,244.37,127.17Z"/><path class="cls-5" d="M137.39,224.21h0a6.7,6.7,0,0,1,.29-9.47l32.41-30.55a1.92,1.92,0,0,1,2.71.08l6.56,7a1.92,1.92,0,0,1-.08,2.71l-32.42,30.55A6.71,6.71,0,0,1,137.39,224.21Z"/></svg>