<svg id="Layer_1" data-name="Layer 1" xmlns="http://www.w3.org/2000/svg" viewBox="0 0 359.1 363.05"><defs><style>.cls-1{fill:#fff;stroke:#fff;stroke-miterlimit:10;}.cls-2{fill:#94d7ec;}.cls-3{fill:#ddd;}.cls-4{fill:#25c2e7;}</style></defs><title>water</title><circle class="cls-1" cx="178.32" cy="183.29" r="132.65"/><path class="cls-2" d="M192.5,286.42h-28a20.84,20.84,0,0,1-20.83-20.83l2.13-65.7-2.13-52.57c0-11.51,9.33-44.47,20.83-44.47l2.06-5.37h23.88l2,5.37c11.5,0,20.83,33,20.83,44.47l-2,52.44,2,65.83A20.84,20.84,0,0,1,192.5,286.42Z"/><rect class="cls-3" x="163.82" y="87.31" width="29.39" height="13.6" rx="3.03"/><path class="cls-4" d="M146.44,213.89c18.82,9.85,44.23,6.47,63.5.59a1.34,1.34,0,0,0-.72-2.59c-18.51,5.65-43.28,9.18-61.42-.32-1.53-.8-2.89,1.51-1.36,2.32Z"/><path class="cls-4" d="M146.44,233.28c19.92,8.75,45.26,5.46,65.26-.65,1.65-.51,1-3.1-.71-2.59-19.22,5.87-44.47,9.15-63.19.92-1.57-.69-2.94,1.62-1.36,2.32Z"/><path class="cls-4" d="M145.15,251.15c20.44,8.71,46,5.82,66.55-.45,1.65-.5,1-3.09-.71-2.59-19.75,6-45.58,8.77-64.49.72-1.57-.67-2.94,1.64-1.35,2.32Z"/><path class="cls-4" d="M143.7,147.32s23,14.89,69.63,0l-1.23,41.77s-41.64,11.55-66.81-2.47Z"/></svg>