<svg id="Layer_1" data-name="Layer 1" xmlns="http://www.w3.org/2000/svg" viewBox="0 0 359.1 363.05"><defs><style>.cls-1{fill:#85643f;}.cls-2{fill:#9a7c50;}.cls-3{fill:#6e5235;}</style></defs><title>work</title><rect class="cls-1" x="75.67" y="134.89" width="215.24" height="136.56" rx="21.4"/><path class="cls-2" d="M241.3,220.42h-116a49.61,49.61,0,0,1-49.61-49.61V155.88a21,21,0,0,1,21-21H269.92a21,21,0,0,1,21,21v14.93A49.61,49.61,0,0,1,241.3,220.42Z"/><path class="cls-1" d="M244.66,210.1H121.23a40.86,40.86,0,0,1-40.86-40.86V156.11a21.22,21.22,0,0,1,21.22-21.22H264.31a21.22,21.22,0,0,1,21.22,21.22v13.13A40.86,40.86,0,0,1,244.66,210.1Z"/><path class="cls-3" d="M219.26,135.64H208.54c0-13.45-13-20.48-25.9-20.48-6.7,0-12.83,1.84-17.27,5.17-4.86,3.66-7.32,8.81-7.32,15.31H147.33a27.79,27.79,0,0,1,11.31-23.07c6.33-4.77,14.86-7.39,24-7.39C206.68,105.18,219.26,120.5,219.26,135.64Z"/><rect class="cls-2" x="162.93" y="203.17" width="40.72" height="24.53" rx="6.8"/><path class="cls-3" d="M196.85,230.78H169.74a9.89,9.89,0,0,1-9.88-9.88V210a9.89,9.89,0,0,1,9.88-9.88h27.11a9.89,9.89,0,0,1,9.88,9.88V220.9A9.89,9.89,0,0,1,196.85,230.78Zm-27.11-24.54A3.73,3.73,0,0,0,166,210V220.9a3.73,3.73,0,0,0,3.73,3.72h27.11a3.73,3.73,0,0,0,3.72-3.72V210a3.73,3.73,0,0,0-3.72-3.73Z"/></svg>