<svg xmlns="http://www.w3.org/2000/svg" viewBox="0 0 359.1 363.05"><defs><style>.cls-1{isolation:isolate;}.cls-2{fill:#fff;stroke:#fff;stroke-miterlimit:10;}.cls-3{fill:#b9b9ba;}.cls-4{fill:#d3d3d3;}.cls-5{fill:#767576;}.cls-6{fill:#8e8d8c;}.cls-7{fill:#c1c1c1;mix-blend-mode:color;}</style></defs><title>BWcanopener_1</title><g class="cls-1"><g id="Layer_1" data-name="Layer 1"><circle class="cls-2" cx="175.89" cy="185.62" r="130.18"/><rect class="cls-3" x="104.03" y="204.2" width="110.75" height="26.89" rx="9.73" transform="translate(-69.81 359.91) rotate(-85.61)"/><path d="M158.87,273.14l-7.41-.57a9.73,9.73,0,0,1-9-10.45l3.5-45.51,26.81,2.06-3.49,45.51A9.73,9.73,0,0,1,158.87,273.14Z"/><rect class="cls-3" x="182.05" y="162.97" width="26.89" height="110.75" rx="9.73" transform="translate(-27.58 28.26) rotate(-7.73)"/><path d="M199.25,273.72l7.37-1a9.73,9.73,0,0,0,8.33-11l-6.13-45.23-26.65,3.62,6.13,45.22A9.74,9.74,0,0,0,199.25,273.72Z"/><rect x="128.96" y="145.87" width="91.76" height="28.31" rx="9.28"/><path class="cls-4" d="M200.26,183.37H154.35c-5,0-9.1-5-9.1-11.14v-28c0-6.84,6.69-13.72,12.3-16.17,14.87-6.49,6.66-13.14,12.7-23.88,3.81-6.77,8.93-6.77,13.21-6.77h16.8c5,0,9.1,5,9.1,11.14v63.65C209.36,178.39,205.28,183.37,200.26,183.37Z"/><circle class="cls-5" cx="170.45" cy="156.27" r="13.62"/><circle class="cls-5" cx="188.47" cy="137.65" r="16.32"/><circle class="cls-6" cx="170.54" cy="156.37" r="5.9"/><circle class="cls-6" cx="188.67" cy="138.07" r="8.75"/><circle class="cls-7" cx="179.55" cy="187.76" r="123.66"/></g></g></svg>