<svg xmlns="http://www.w3.org/2000/svg" viewBox="0 0 359.1 363.05"><defs><style>.cls-1{isolation:isolate;}.cls-2{fill:#fff;stroke:#fff;stroke-miterlimit:10;}.cls-3{fill:#9d9d9d;}.cls-4{fill:#fff4ee;}.cls-5{fill:#9e9d9e;}.cls-6{fill:#d0d2d3;}.cls-7{fill:#b7b7b7;}.cls-8{fill:#ecb38d;}.cls-9{fill:#d2593c;}.cls-10{fill:#4e7d40;}.cls-11{fill:#c1c1c1;mix-blend-mode:color;}</style></defs><title>BWcannedfood_1</title><g class="cls-1"><g id="Layer_1" data-name="Layer 1"><circle class="cls-2" cx="178.47" cy="181.34" r="128.87"/><path class="cls-3" d="M235.12,247.32c0,13.51-24.21,24.45-57.45,24.45s-60.19-10.94-60.19-24.45,27-24.45,60.19-24.45S235.12,233.82,235.12,247.32Z"/><path class="cls-4" d="M235.12,118.31c0-12.15-10.16-18.48-29.67-18.48L149.2,99.1c-19.51,0-31.72,7.06-31.72,19.21V243.16a13.81,13.81,0,0,0,.32,2.8c.07,3.22,2,6.28,5.27,9,4.89,4.76,12.63,8.25,21.74,9.57a139.27,139.27,0,0,0,32.85,3.69c14.74,0,27.69-2,37.52-5.32a41.29,41.29,0,0,0,8.37-3.53c7.07-3.74,11.16-8.4,11.26-13.46a14.45,14.45,0,0,0,.31-2.79Z"/><path class="cls-5" d="M235.43,117.61a13.7,13.7,0,0,1-2.71,7.87,28.52,28.52,0,0,1-6,6.11,51.88,51.88,0,0,1-15.24,8,123.36,123.36,0,0,1-33.87,4.12,126.92,126.92,0,0,1-33.79-4.54,63.31,63.31,0,0,1-16-6.8,28.2,28.2,0,0,1-6.87-5.82,13,13,0,0,1,0-17.84,28.25,28.25,0,0,1,6.87-5.83,63.28,63.28,0,0,1,16-6.79,126.52,126.52,0,0,1,33.79-4.55,122.08,122.08,0,0,1,33.86,4.14,52.86,52.86,0,0,1,15.24,8,28.53,28.53,0,0,1,6,6.1A13.72,13.72,0,0,1,235.43,117.61Zm0,0a12.08,12.08,0,0,0-3-7.64,22.55,22.55,0,0,0-6.48-5.09,63.45,63.45,0,0,0-15.52-5.37,117.92,117.92,0,0,0-32.73-4A122.83,122.83,0,0,0,145,99.91a59.39,59.39,0,0,0-14.92,6.34,24.17,24.17,0,0,0-5.92,5,9.07,9.07,0,0,0,0,12.75,24.17,24.17,0,0,0,5.92,5A59.39,59.39,0,0,0,145,135.3a122.83,122.83,0,0,0,32.71,4.38,117.56,117.56,0,0,0,32.73-4,65,65,0,0,0,15.51-5.38,22.35,22.35,0,0,0,6.49-5.08A12.08,12.08,0,0,0,235.43,117.61Z"/><path class="cls-6" d="M232.27,117.18c0,12.24-23.2,22.17-55.07,22.17s-57.69-9.93-57.69-22.17S145.34,95,177.2,95,232.27,104.93,232.27,117.18Z"/><path class="cls-7" d="M176.69,131.64c-20.19,0-36-6.35-36-14.46s15.82-14.47,36-14.47c19.62,0,34.41,6.22,34.41,14.47S196.31,131.64,176.69,131.64Zm0-26.9c-18.42,0-34,5.69-34,12.44s15.55,12.43,34,12.43c20.27,0,32.38-6.32,32.38-12.43S197,104.74,176.69,104.74Z"/><path class="cls-8" d="M235,157.53S201.38,170,175.89,170s-58.25-12.42-58.25-12.42V219.6c0,.55,0,1.1.08,1.64a8.74,8.74,0,0,0-.08,1.14c0,2.56,1.21,5,3.43,7.29a16.58,16.58,0,0,0,8.66,5.87c11,5.28,28.35,8.69,47.94,8.69,21.2,0,38.7-4,48.58-10a16.67,16.67,0,0,0,2.95-2c3.71-2.94,5.76-6.26,5.76-9.77a9.36,9.36,0,0,0-.08-1.18c.05-.52.08-1.06.08-1.6Z"/><path class="cls-9" d="M219.52,194.72c0,11.78-10.26,21.33-22.91,21.33s-22.91-9.55-22.91-21.33c0-9.2,5.81-15.1,14.57-18.09,2.47-.85,5.56,3.18,8.34,3.18,2.48,0,5.11-4,7.35-3.33C213.13,179.26,219.52,185.25,219.52,194.72Z"/><path class="cls-10" d="M191.62,176.12c-5.69-2.4-12.62,5.49-15.75,8.09,0,0,11-5.34,12.57-3s6.52,0,6.52,0S198,178.81,191.62,176.12Z"/><path class="cls-10" d="M201.09,176.35c5.58-2.64,12,3.55,15.22,6,0,0-10.4-3.47-11.84-1.07s-6.51.28-6.51.28S194.85,179.31,201.09,176.35Z"/><path class="cls-10" d="M195.53,183.44c-.82,6.12-9.5,8.14-13.33,9.52,0,0,8.57-6.85,7.33-9.36s3.31-5.62,3.31-5.62S196.44,176.6,195.53,183.44Z"/><path class="cls-10" d="M199.31,178.63c6.07,1.16,7.6,9.93,8.76,13.83,0,0-6.36-8.92-8.93-7.83s-5.43-3.61-5.43-3.61S192.53,177.35,199.31,178.63Z"/><path class="cls-10" d="M200.14,170.25s-4.43.47-5.23,2.8-1.85,4.11-.9,6.13,5,.47,5,.47-1-7.07,1.14-6.71S201.24,170.83,200.14,170.25Z"/><path class="cls-9" d="M195.39,212.49c0,13-11.36,23.6-25.36,23.6s-25.36-10.56-25.36-23.6c0-10.17,6.44-16.7,16.13-20,2.73-.93,6.16,3.52,9.23,3.52,2.75,0,5.65-4.44,8.13-3.69C188.31,195.39,195.39,202,195.39,212.49Z"/><path class="cls-10" d="M164.51,191.91c-6.3-2.66-14,6.08-17.43,9,0,0,12.21-5.91,13.91-3.32s7.21,0,7.21,0S171.54,194.89,164.51,191.91Z"/><path class="cls-10" d="M175,192.17c6.18-2.93,13.27,3.93,16.85,6.66,0,0-11.51-3.84-13.1-1.18s-7.2.3-7.2.3S168.08,195.44,175,192.17Z"/><path class="cls-10" d="M168.83,200c-.9,6.78-10.5,9-14.74,10.53,0,0,9.47-7.58,8.1-10.36s3.67-6.21,3.67-6.21S169.84,192.44,168.83,200Z"/><path class="cls-10" d="M173,194.69c6.72,1.28,8.41,11,9.7,15.3,0,0-7-9.88-9.89-8.66s-6-4-6-4S165.51,193.27,173,194.69Z"/><path class="cls-10" d="M173.93,185.41s-4.9.52-5.78,3.1-2.05,4.54-1,6.79,5.52.52,5.52.52-1.13-7.82,1.26-7.44S175.16,186.06,173.93,185.41Z"/><circle class="cls-11" cx="175.51" cy="179.94" r="122.25"/></g></g></svg>