<svg xmlns="http://www.w3.org/2000/svg" viewBox="0 0 359.1 363.05"><defs><style>.cls-1{isolation:isolate;}.cls-2{fill:#fff;}.cls-3{fill:#91c56e;}.cls-4{fill:#c2dfa9;}.cls-5{fill:#6e9852;}.cls-6{fill:#c1c1c1;mix-blend-mode:color;}</style></defs><title>BWcharger_1</title><g class="cls-1"><g id="Layer_1" data-name="Layer 1"><circle class="cls-2" cx="179.08" cy="184.1" r="124.96"/><rect class="cls-3" x="124.56" y="126.8" width="111.07" height="137.36" rx="22.49"/><rect class="cls-4" x="124.56" y="109.9" width="111.07" height="137.36" rx="22.49"/><rect class="cls-5" x="167.55" y="252.76" width="25.09" height="5.69" rx="2.76"/><path class="cls-2" d="M183.41,141.73,162,160.21a1.43,1.43,0,0,0,.33,2.39l21.47,10.06a1.44,1.44,0,0,1,.59,2.1l-13.76,20.61a1.43,1.43,0,0,0,2.15,1.86L201,172.06a1.43,1.43,0,0,0-.31-2.35L179,158.78a1.44,1.44,0,0,1-.62-2l7.27-13.3A1.44,1.44,0,0,0,183.41,141.73Z"/><circle class="cls-3" cx="160.44" cy="235.06" r="4.9"/><circle class="cls-3" cx="180.1" cy="235.06" r="4.9"/><circle class="cls-3" cx="199.75" cy="235.06" r="4.9"/><circle class="cls-6" cx="179.08" cy="189.1" r="113.7"/></g></g></svg>