<svg xmlns="http://www.w3.org/2000/svg" viewBox="0 0 359.1 363.05"><defs><style>.cls-1{isolation:isolate;}.cls-2{fill:#fff;stroke:#fff;stroke-miterlimit:10;}.cls-3{fill:#94d7ec;}.cls-4{fill:#d0d2d3;}.cls-5{fill:#c1c1c1;mix-blend-mode:color;}</style></defs><title>BWcookingwater_1</title><g class="cls-1"><g id="Layer_1" data-name="Layer 1"><circle class="cls-2" cx="176.55" cy="180.33" r="129.32"/><path class="cls-3" d="M120.37,215.08c0,9.5-5.68,15.35-12.67,15.35S95,224.58,95,215.08c0-8.22,9.48-23.27,12-27.17a.74.74,0,0,1,1.25,0C110.88,191.81,120.37,206.86,120.37,215.08Z"/><path class="cls-4" d="M219.51,119.35a9.66,9.66,0,0,0-8.64,2.54L204,128.55c-.18.17-.34.35-.5.53l-18.74-21.83-62.7,60.69.28.26-6.57,12.06,23,3,76.55,70.16,51.81-50.15-35.25-41.1c.22-.18.45-.37.66-.58a9.75,9.75,0,0,0,1.9-2.57c5.76-11.25,7.19-20.11,4.27-26.33C234.42,123.6,224.84,120.43,219.51,119.35Zm13.31,16.1c2,4.18.48,11.5-4.18,20.6a3.14,3.14,0,0,1-1,1.18l-19.79-23.07a3.34,3.34,0,0,1,.66-.94l6.89-6.66a3.18,3.18,0,0,1,2.83-.84C222.36,126.56,229.75,128.93,232.82,135.45Z"/><path class="cls-3" d="M133.35,250.73c1.06,6-2.9,10.75-7.5,10.75s-8.83-4.43-7.73-10.37c1.53-8.24,7.73-16.11,7.73-16.11S131.85,242.28,133.35,250.73Z"/><circle class="cls-5" cx="180.81" cy="185.57" r="122.84"/></g></g></svg>