<svg xmlns="http://www.w3.org/2000/svg" viewBox="0 0 359.1 363.05"><defs><style>.cls-1{isolation:isolate;}.cls-2{fill:#fff;stroke:#fff;stroke-miterlimit:10;}.cls-3{fill:#94d7ec;}.cls-4{fill:#f0f2f2;}.cls-5{fill:#c1c1c1;mix-blend-mode:color;}</style></defs><title>BWdiaper_1</title><g class="cls-1"><g id="Layer_1" data-name="Layer 1"><circle class="cls-2" cx="177.02" cy="185.57" r="131.86"/><path class="cls-3" d="M254.06,203.88c-10.54,23.2-22.12,44.72-51.19,52.14H151.22c-24.64-11.25-39.53-23.81-51.19-52.14V153.51a13.21,13.21,0,0,1,13.09-13.34H241a13.21,13.21,0,0,1,13.09,13.34Z"/><path class="cls-4" d="M246.61,204.42c-27.5.75-42.46.62-43.94,43.64A5.61,5.61,0,0,1,197,253.4h0l-39.31,1c-3.54.09-6.53-3.89-6.65-7.07-1.42-38.7-20.44-39.49-44.25-42.32a6.61,6.61,0,0,1-5.92-6.5V156.7a12.77,12.77,0,0,1,12.94-12.58h126.4a12.77,12.77,0,0,1,12.94,12.58v41.18A6.64,6.64,0,0,1,246.61,204.42Z"/><rect class="cls-3" x="100.39" y="155.9" width="12.96" height="33.46" rx="2.78"/><rect class="cls-3" x="240.19" y="155.9" width="12.96" height="33.46" rx="2.78"/><circle class="cls-5" cx="177.05" cy="184.21" r="124.96"/></g></g></svg>