<svg xmlns="http://www.w3.org/2000/svg" viewBox="0 0 359.1 363.05"><defs><style>.cls-1{isolation:isolate;}.cls-2{fill:#fff;}.cls-3{fill:#474748;}.cls-4{fill:#f27c7a;}.cls-5{fill:#c1c1c1;mix-blend-mode:color;}</style></defs><title>BWfireextinguisher_1</title><g class="cls-1"><g id="Layer_1" data-name="Layer 1"><circle class="cls-2" cx="177.51" cy="187.56" r="128.29"/><path class="cls-3" d="M249.1,124.82,221,125.93a6.69,6.69,0,0,0-3.54-6.58L214.91,118c.15-.25.3-.48.43-.74a13.35,13.35,0,1,0-24.65-2.64c-.35-.12-.69-.25-1-.36a32.73,32.73,0,0,0-18.75-.6c-7.85,2.32-13.58,8.25-17.67,15.11-2.64,4.44,4.46,8.16,7.1,3.74,3.25-5.45,7.85-10.14,14.24-11.52,4.9-1.06,10.12-.1,14.77,1.58a53.74,53.74,0,0,1,11.09,5.55l-6.07,11.56a6.69,6.69,0,0,0,2.81,9l3.84,2a6.69,6.69,0,0,0,9-2.81l6.55-12.46,14.69,23.26a5.16,5.16,0,0,0,8.94-.35l13.66-26A5.17,5.17,0,0,0,249.1,124.82ZM206.75,104.9a6.93,6.93,0,1,1-9.36,2.91A6.93,6.93,0,0,1,206.75,104.9Z"/><path class="cls-4" d="M149.9,277.56l-27.5-14.45A17.55,17.55,0,0,1,115,239.42L162,150a29.09,29.09,0,0,1,39.28-12.22l7.06,3.71a29.09,29.09,0,0,1,12.21,39.28l-47,89.41A17.55,17.55,0,0,1,149.9,277.56Z"/><circle class="cls-5" cx="174.69" cy="185.79" r="121.75"/></g></g></svg>