<svg xmlns="http://www.w3.org/2000/svg" viewBox="0 0 359.1 363.05"><defs><style>.cls-1{isolation:isolate;}.cls-2{fill:#fff;stroke:#fff;stroke-miterlimit:10;}.cls-3{fill:#f9a75e;}.cls-4{fill:#fde997;}.cls-5{fill:#4673b7;}.cls-6{fill:#ddb775;}.cls-7{fill:#d7376d;}.cls-8{fill:#94d7ec;}.cls-9{fill:#c1c1c1;mix-blend-mode:color;}</style></defs><title>BWmatches_1</title><g class="cls-1"><g id="Layer_1" data-name="Layer 1"><circle class="cls-2" cx="178.05" cy="183.39" r="128.4"/><path class="cls-3" d="M255.83,153.66c-1.5,11.18-9.09,17.17-17.33,16.07s-14-8.88-12.49-20.06c1.3-9.68,14.83-25.88,18.46-30.08a.89.89,0,0,1,1.47.2C248.34,124.79,257.13,144,255.83,153.66Z"/><path class="cls-4" d="M248.75,160.23c-.89,6.61-5.38,10.15-10.25,9.5s-8.27-5.25-7.38-11.86c.76-5.72,8.77-15.31,10.91-17.79a.53.53,0,0,1,.87.12C244.32,143.16,249.52,154.51,248.75,160.23Z"/><rect class="cls-5" x="116.1" y="119.28" width="107.2" height="149.19" rx="15.95"/><rect class="cls-6" x="135.74" y="140.95" width="13.99" height="96.02" rx="6.05"/><path class="cls-7" d="M142.73,150.63h0c-8.75,0-8.75-12-8.75-12a8.75,8.75,0,0,1,8.75-8.75h0a8.74,8.74,0,0,1,8.75,8.75S151.53,150.63,142.73,150.63Z"/><rect class="cls-6" x="162.3" y="140.95" width="13.99" height="96.02" rx="6.05"/><path class="cls-7" d="M169.3,150.63h0c-8.76,0-8.76-12-8.76-12a8.75,8.75,0,0,1,8.76-8.75h0a8.75,8.75,0,0,1,8.75,8.75S178.09,150.63,169.3,150.63Z"/><rect class="cls-6" x="188.86" y="140.95" width="13.99" height="96.02" rx="6.05"/><path class="cls-7" d="M195.86,150.63h0c-8.75,0-8.75-12-8.75-12a8.75,8.75,0,0,1,8.75-8.75h0a8.75,8.75,0,0,1,8.75,8.75S204.66,150.63,195.86,150.63Z"/><path class="cls-8" d="M115.69,161.27H223.31a0,0,0,0,1,0,0v91.67a15.95,15.95,0,0,1-15.95,15.95H131.64a15.95,15.95,0,0,1-15.95-15.95V161.27a0,0,0,0,1,0,0Z"/><rect class="cls-6" x="177.77" y="200.81" width="96.02" height="13.99" rx="6.05" transform="translate(-35.45 368.79) rotate(-74.27)"/><path class="cls-7" d="M236.17,170.9h0C227.74,168.53,231,157,231,157a8.75,8.75,0,0,1,10.8-6h0a8.75,8.75,0,0,1,6.05,10.79S244.64,173.29,236.17,170.9Z"/><path class="cls-3" d="M161.91,239.16c-20.51-3.34-14.12-27-21.72-33.77,0,0,11.52,2.33,13.85,7.74,0,0-2.42-13.21,18.16-30,0,0,12,13.39,11.69,29.36,0,0,2.35-6,11.09-11.92,0,0,5.3,32.78-10.15,37.84C175.37,241.52,161.91,239.16,161.91,239.16Z"/><path class="cls-4" d="M172.13,238.47s-16.65-7.12-17.54-15.72c0,0,3.9,2,6.7,1.09s-1.41-8.69,2.9-12.4a16.33,16.33,0,0,1,5.78,8.87c1.65,6.09,7.77-2.25,9.07-5.92,0,0-3.1,11.48,2.33,10.6s8.58-9.35,8.58-9.35-2.83,22.43-10.12,23.41-5.46.95-5.46.95Z"/><circle class="cls-9" cx="174.72" cy="181.91" r="122.25"/></g></g></svg>