<svg xmlns="http://www.w3.org/2000/svg" viewBox="0 0 359.1 363.05"><defs><style>.cls-1{isolation:isolate;}.cls-2{fill:#fff;}.cls-3{fill:#9fdeed;}.cls-4{fill:#8accd6;}.cls-5{fill:#686969;}.cls-5,.cls-6,.cls-7{fill-rule:evenodd;}.cls-6{fill:#595a5a;}.cls-7{fill:#d2593c;}.cls-8{fill:#c1c1c1;mix-blend-mode:color;}</style></defs><title>BWroadmap_1</title><g class="cls-1"><g id="Layer_1" data-name="Layer 1"><circle class="cls-2" cx="178.64" cy="184.86" r="124.61"/><polygon class="cls-3" points="155.65 241.52 106.61 251.9 106.61 136.69 155.65 126.31 155.65 241.52"/><polygon class="cls-4" points="204.68 251.9 155.65 241.52 155.65 126.31 204.68 136.69 204.68 251.9"/><polygon class="cls-3" points="253.72 241.52 204.68 251.9 204.68 136.69 253.72 126.31 253.72 241.52"/><path class="cls-5" d="M137.93,183.4l2.74,5.59a39.35,39.35,0,0,1,8.78-3.34l-.73-6.31A47,47,0,0,0,137.93,183.4Z"/><path class="cls-5" d="M121.58,194.77l4.08,4.71a92.88,92.88,0,0,1,8.17-6.36L130.3,188A101.21,101.21,0,0,0,121.58,194.77Z"/><path class="cls-5" d="M107.75,208.71l4.73,4.06c2.27-2.64,4.67-5.21,7.15-7.68l-4.39-4.41Q111.34,204.55,107.75,208.71Z"/><path class="cls-6" d="M187.46,203.71l-4.19,4.63a36.3,36.3,0,0,0,4.54,4,29,29,0,0,0,5.24,3.07l2.43-5.81A25.44,25.44,0,0,1,187.46,203.71Z"/><path class="cls-6" d="M175.45,188.53l-4.26,4.62c1,1.18,2,2.43,2.94,3.67l3.19,4.3,5-3.72L179.08,193C177.91,191.5,176.72,190,175.45,188.53Z"/><path class="cls-6" d="M158,178.65,157,185a18.11,18.11,0,0,1,8.77,3.12l3-5.7A22.64,22.64,0,0,0,158,178.65Z"/><path class="cls-5" d="M238.55,200.18l2.93,5.5a44.09,44.09,0,0,1,9-4l-1.61-6A49.71,49.71,0,0,0,238.55,200.18Z"/><path class="cls-5" d="M221.34,208.25l2,5.9a81.5,81.5,0,0,0,10.45-4.43L231,204.15A77,77,0,0,1,221.34,208.25Z"/><path class="cls-5" d="M203.35,211.32l-.78,6.22a56.38,56.38,0,0,0,6.09-.25c1,0,2-.23,3-.37s1.93-.26,2.88-.45l-1.16-6.12c-.84.17-1.73.27-2.56.4s-1.64.28-2.48.32C206.7,211.16,205,211.39,203.35,211.32Z"/><path class="cls-7" d="M208.57,127a25.26,25.26,0,0,0-25.26,25.26c0,11.07,15.9,36.81,22.47,47a3.32,3.32,0,0,0,5.58,0c6.57-10.16,22.47-35.9,22.47-47A25.26,25.26,0,0,0,208.57,127Zm0,36.57a10.66,10.66,0,1,1,10.66-10.66A10.66,10.66,0,0,1,208.57,163.58Z"/><circle class="cls-8" cx="178.34" cy="187.38" r="120.16"/></g></g></svg>